<svg width="437" height="347" viewBox="0 0 437 347" fill="none" xmlns="http://www.w3.org/2000/svg">
<path d="M357.516 109.342C398.108 155.019 442.372 202.863 435.874 242.23C429.281 281.503 371.831 312.206 318.337 329.912C264.749 347.712 215.021 352.515 157.477 338.294C99.8391 324.167 34.2897 291.015 10.5563 234.696C-13.2713 178.282 4.62297 98.6994 50.3004 51.7976C96.0719 4.99011 169.721 -9.1369 225.005 5.5552C280.194 20.2473 317.019 63.6643 357.516 109.342Z" fill="#F7CF25" fill-opacity="0.1"/>
<path d="M271.106 289.264H261.366C261.43 288.016 261.971 286.84 262.877 285.979C263.784 285.118 264.986 284.638 266.236 284.638C267.486 284.638 268.688 285.118 269.595 285.979C270.501 286.84 271.042 288.016 271.106 289.264Z" fill="#0D172B"/>
<path d="M269.899 291.521C270.379 289.486 269.119 287.446 267.083 286.966C265.048 286.485 263.008 287.746 262.528 289.781C262.048 291.817 263.308 293.856 265.344 294.336C267.379 294.817 269.418 293.556 269.899 291.521Z" fill="#0D172B"/>
<path d="M242.02 290.677C242.02 291.681 241.621 292.644 240.911 293.355C240.201 294.065 239.238 294.464 238.234 294.464C237.942 294.465 237.652 294.431 237.369 294.36C236.715 294.209 236.113 293.887 235.624 293.427C235.135 292.966 234.778 292.384 234.588 291.74C234.399 291.096 234.384 290.413 234.545 289.762C234.706 289.11 235.038 288.513 235.506 288.031C235.974 287.55 236.561 287.201 237.208 287.022C237.855 286.842 238.538 286.838 239.187 287.01C239.837 287.181 240.429 287.522 240.903 287.998C241.377 288.473 241.716 289.066 241.885 289.716C241.973 290.029 242.019 290.352 242.02 290.677Z" fill="#0D172B"/>
<path d="M238.847 218.222H227.887V276.253H238.847V218.222Z" fill="#383F53"/>
<path d="M228.171 262.062H238.337C238.724 262.062 239.095 262.215 239.368 262.488C239.641 262.762 239.795 263.133 239.795 263.519V279.937H226.713V263.519C226.713 263.133 226.866 262.762 227.14 262.488C227.413 262.215 227.784 262.062 228.171 262.062Z" fill="#152036"/>
<path d="M196.956 285.394H231.061V278.395L196.956 282.207V285.394Z" fill="#152036"/>
<path d="M269.784 285.394H235.679V278.395L269.784 282.207V285.394Z" fill="#152036"/>
<path d="M229.854 277.904V285.394L237.84 288.426L238.027 283.162L235.679 278.395L229.854 277.904Z" fill="#152036"/>
<path d="M237.841 288.426H241.982V283.162L238.028 279.15H231.061L238.028 283.162L237.841 288.426Z" fill="#1B2B44"/>
<path d="M238.847 229.176C238.127 228.454 237.273 227.881 236.332 227.491C235.391 227.1 234.382 226.899 233.363 226.899C232.345 226.899 231.336 227.1 230.395 227.491C229.454 227.881 228.6 228.454 227.88 229.176V218.209H238.847V229.176Z" fill="#262C38"/>
<path d="M219.114 217.268H247.627V217.822C247.626 218.795 247.433 219.758 247.06 220.656C246.686 221.554 246.139 222.37 245.45 223.057C244.761 223.744 243.944 224.288 243.044 224.658C242.145 225.028 241.181 225.217 240.208 225.215H226.513C225.542 225.215 224.579 225.023 223.682 224.652C222.784 224.28 221.968 223.735 221.281 223.048C220.594 222.361 220.049 221.545 219.677 220.647C219.306 219.75 219.114 218.788 219.114 217.816V217.261V217.268Z" fill="#383F53"/>
<path d="M204.787 289.264H195.034C195.098 288.016 195.639 286.84 196.545 285.979C197.452 285.118 198.654 284.638 199.904 284.638C201.154 284.638 202.356 285.118 203.263 285.979C204.169 286.84 204.71 288.016 204.774 289.264H204.787Z" fill="#0D172B"/>
<path d="M243.104 289.264H233.363C233.428 288.016 233.969 286.84 234.875 285.979C235.781 285.118 236.984 284.638 238.234 284.638C239.484 284.638 240.686 285.118 241.592 285.979C242.498 286.84 243.04 288.016 243.104 289.264Z" fill="#152036"/>
<path d="M238.46 284.504L237.97 284.716C238.545 285.309 238.935 286.058 239.091 286.869C239.247 287.68 239.162 288.52 238.847 289.284H243.104C243.104 289.284 243.666 285.097 238.46 284.504Z" fill="#1B2B44"/>
<path d="M242.02 290.677C242.02 291.681 241.621 292.644 240.911 293.354C240.201 294.065 239.238 294.464 238.234 294.464C237.942 294.465 237.652 294.431 237.369 294.36H237.763C240.266 294.418 241.298 291.587 239.627 289.716H241.898C241.982 290.029 242.023 290.353 242.02 290.677Z" fill="#1B2B44"/>
<path d="M69.3987 294.87H63.7285L118.966 177.57H125.314L69.3987 294.87Z" fill="#262C38"/>
<path d="M71.0309 294.87H65.3672L120.598 177.57H126.946L71.0309 294.87Z" fill="#262C38"/>
<path d="M123.378 294.87H129.042L65.9086 177.57H59.561L123.378 294.87Z" fill="#262C38"/>
<path d="M124.856 294.87H130.519L67.3924 177.57H61.0449L124.856 294.87Z" fill="#262C38"/>
<path d="M276.603 211.062H211.031C209.569 211.057 208.168 210.473 207.134 209.439C206.101 208.404 205.519 207.002 205.516 205.54L218.488 93.4005C218.491 91.9371 219.074 90.5345 220.109 89.4997C221.144 88.4649 222.546 87.8821 224.01 87.8787H289.582C291.044 87.8838 292.445 88.4674 293.478 89.502C294.512 90.5366 295.094 91.9382 295.097 93.4005L282.118 205.54C282.115 207.002 281.533 208.404 280.499 209.439C279.466 210.473 278.065 211.057 276.603 211.062Z" fill="#0D172B"/>
<path d="M274.48 210.172L274.306 209.946C274.975 209.424 275.515 208.755 275.884 207.991C276.254 207.227 276.442 206.389 276.435 205.54L288.472 93.3811C288.472 90.4331 286.24 88.027 283.498 88.027H249.955V87.7367H283.498C286.401 87.7367 288.762 90.2783 288.762 93.4005L276.719 205.559C276.724 206.448 276.524 207.326 276.136 208.126C275.748 208.926 275.182 209.626 274.48 210.172Z" fill="#354263"/>
<path d="M277.77 211.062H183.254C181.982 211.062 180.951 212.093 180.951 213.365V218.067C180.951 219.339 181.982 220.37 183.254 220.37H277.77C279.042 220.37 280.073 219.339 280.073 218.067V213.365C280.073 212.093 279.042 211.062 277.77 211.062Z" fill="#152036"/>
<path d="M177.959 204.023C181.699 199.111 180.75 192.097 175.838 188.357C170.926 184.616 163.911 185.566 160.171 190.478C156.43 195.39 157.38 202.404 162.292 206.144C167.204 209.885 174.218 208.935 177.959 204.023Z" fill="#0D172B"/>
<path d="M170.34 208.63L233.254 214.3L233.086 182.492L168.824 186.265C168.204 193.671 169.514 201.328 170.34 208.63Z" fill="#0D172B"/>
<path d="M236.372 214.099C244.82 211.723 249.742 202.949 247.366 194.501C244.99 186.053 236.216 181.131 227.768 183.507C219.32 185.883 214.398 194.657 216.774 203.105C219.15 211.553 227.924 216.475 236.372 214.099Z" fill="#0D172B"/>
<path d="M247.336 211.126C254.257 211.772 259.715 202.237 266.649 202.457L262.585 180.84L214.114 175.86L207.851 200.334C218.533 213.552 234.699 209.92 247.336 211.126Z" fill="#152036"/>
<path d="M265.263 68.9328C271.326 65.1914 269.269 71.468 269.004 73.8096C268.74 76.1512 266.533 80.3893 264.489 79.5249C262.444 78.6605 265.263 68.9328 265.263 68.9328Z" fill="url(#paint0_linear_24_686)"/>
<path d="M267.481 74.9643L267.262 74.8739C267.681 73.8483 268.739 71.0422 268.552 70.3584C268.527 70.2268 268.461 70.1063 268.364 70.0138C268.266 69.9213 268.143 69.8614 268.01 69.8424C267.797 69.8079 267.579 69.8303 267.377 69.9074C267.175 69.9844 266.998 70.1133 266.862 70.281L266.668 70.1456C266.83 69.9401 267.044 69.782 267.288 69.6878C267.533 69.5936 267.797 69.5668 268.055 69.6102C268.232 69.638 268.395 69.719 268.524 69.8424C268.654 69.9657 268.742 70.1255 268.778 70.3004C269.016 71.2293 267.539 74.8095 267.481 74.9643Z" fill="#102051"/>
<path d="M266.676 73.6974L266.043 74.7012L266.245 74.8285L266.878 73.8247L266.676 73.6974Z" fill="#102051"/>
<path d="M244.581 65.7784C239.911 60.392 240.001 66.9976 239.556 69.3134C239.111 71.6292 239.95 76.3318 242.182 76.1189C244.413 75.906 244.581 65.7784 244.581 65.7784Z" fill="url(#paint1_linear_24_686)"/>
<path d="M240.614 70.8616C240.614 70.7003 240.266 66.817 240.749 65.9978C240.837 65.8405 240.97 65.7136 241.131 65.634C241.293 65.5545 241.475 65.5261 241.653 65.5527C241.911 65.5871 242.156 65.6911 242.36 65.8536C242.565 66.016 242.722 66.2308 242.814 66.4751L242.588 66.5461C242.509 66.346 242.378 66.1703 242.209 66.0367C242.041 65.903 241.84 65.8162 241.627 65.7849C241.499 65.7689 241.369 65.7917 241.254 65.8503C241.139 65.909 241.044 66.0008 240.982 66.1139C240.608 66.7589 240.775 69.7392 240.872 70.8423L240.614 70.8616Z" fill="#102051"/>
<path d="M241.82 69.8256L241.589 69.887L241.895 71.034L242.125 70.9726L241.82 69.8256Z" fill="#102051"/>
<path d="M260.328 89.1107L258.393 101.593C257.806 106.534 253.458 110.037 248.975 109.682C244.046 109.302 240.105 104.36 241.079 98.9481C241.711 94.7852 242.356 90.6245 243.014 86.4659C243.416 84.2165 244.681 82.2132 246.539 80.8833C248.397 79.5534 250.702 79.0022 252.961 79.3473C255.219 79.6923 257.254 80.9063 258.63 82.7303C260.007 84.5543 260.616 86.8439 260.328 89.1107Z" fill="#F2A981"/>
<path d="M252.568 97.1613C251.955 97.1498 251.371 96.9026 250.936 96.471C250.619 96.1023 250.382 95.6714 250.241 95.206C250.1 94.7406 250.058 94.2509 250.117 93.7682H250.388C250.331 94.213 250.368 94.6647 250.495 95.0946C250.623 95.5244 250.839 95.9229 251.129 96.2646C251.52 96.6457 252.041 96.8647 252.587 96.8774V97.1484L252.568 97.1613Z" fill="#0B131D"/>
<path d="M260.328 89.1107L259.528 94.3745C258.085 94.8133 256.562 94.9235 255.071 94.6971L250.097 93.9359C248.569 93.7037 247.114 93.1232 245.846 92.2393L245.433 91.949C244.299 91.1601 243.346 90.1373 242.64 88.9494L243.014 86.4659L260.328 89.1107Z" fill="#102051"/>
<path d="M272.507 51.0836C272.636 56.599 266.895 71.655 266.895 71.655L255.496 69.9133L241.543 67.7846C241.543 67.7846 241.814 51.6191 244.859 46.0456C247.904 40.4722 272.507 51.0836 272.507 51.0836Z" fill="#102051"/>
<path d="M245.407 51.9609C244.754 51.9538 244.122 51.7266 243.614 51.3159C242.86 50.7091 242.264 49.9285 241.877 49.041C241.491 48.1534 241.325 47.1853 241.395 46.2198C241.511 45.3936 241.811 44.6039 242.272 43.9085C242.733 43.2131 243.343 42.6297 244.059 42.201C244.973 41.5903 246.006 41.1793 247.09 40.9948C248.173 40.8103 249.284 40.8564 250.349 41.1301C252.432 41.7752 254.303 43.9878 253.761 46.2907L253.529 46.2391C254.038 44.0459 252.239 41.93 250.303 41.3366C249.271 41.0719 248.195 41.0276 247.145 41.2065C246.094 41.3855 245.094 41.7836 244.207 42.3751C243.526 42.7856 242.945 43.3424 242.506 44.005C242.066 44.6677 241.779 45.4198 241.666 46.2069C241.602 47.1326 241.763 48.06 242.135 48.9102C242.507 49.7605 243.078 50.5083 243.801 51.0901C244.099 51.3492 244.455 51.533 244.839 51.6262C245.223 51.7193 245.623 51.7191 246.007 51.6255L246.078 51.8513C245.862 51.9248 245.635 51.9618 245.407 51.9609Z" fill="#102051"/>
<path d="M243.678 50.6772C242.864 49.9179 242.313 48.9193 242.105 47.8259C241.896 46.7326 242.041 45.6013 242.518 44.5956C242.995 43.59 243.779 42.7621 244.758 42.2319C245.736 41.7017 246.858 41.4966 247.961 41.6462C249.165 41.8837 250.318 42.3313 251.367 42.9686C252.185 43.4391 253.05 43.8218 253.948 44.1104L253.883 44.3362C252.967 44.044 252.085 43.6547 251.251 43.175C250.228 42.5489 249.1 42.1119 247.923 41.8849C246.873 41.7452 245.807 41.9421 244.877 42.4473C243.947 42.9524 243.201 43.7398 242.747 44.696C242.293 45.6521 242.154 46.7277 242.35 47.7678C242.547 48.8079 243.068 49.7589 243.839 50.4837L243.678 50.6772Z" fill="#102051"/>
<path d="M270.165 61.3274L269.965 61.2049C271.826 58.0781 272.705 54.4643 272.488 50.8321H272.72C272.94 54.5075 272.05 58.1643 270.165 61.3274Z" fill="#102051"/>
<path d="M133.803 256.572L127.83 265.616L120.837 262.274L126.417 253.05L133.803 256.572Z" fill="#F2A981"/>
<path d="M122.14 258.843L130.416 263.661L127.952 268.822L126.507 268.132L125.417 269.751L118.043 265.758L119.14 264.3C119.106 264.306 119.072 264.306 119.038 264.298C119.005 264.29 118.974 264.275 118.946 264.255C118.919 264.234 118.896 264.208 118.879 264.178C118.863 264.148 118.853 264.115 118.85 264.081C118.818 263.835 122.14 258.843 122.14 258.843Z" fill="#CFE6FF"/>
<path d="M94.9312 268.848L94.4087 269.944L114.161 274.769L115.78 274.195L116.309 275.795L122.689 278.162L123.753 275.937L118.044 273.215L109.69 269.228L94.9312 268.848Z" fill="#152036"/>
<path d="M127.959 268.822L119.147 264.306L125.701 269.351L126.191 268.628L127.959 268.822Z" fill="#102051"/>
<path d="M125.423 269.757L125.688 271.867L123.753 275.937L122.746 276.724L116.528 274.466L116.283 273.641C115.762 273.697 115.236 273.697 114.715 273.641C114.296 273.518 94.9307 268.88 94.9307 268.88L96.0595 266.635L110.451 266.132L118.057 265.796L125.423 269.757Z" fill="#356AB0"/>
<path d="M114.922 265.906L117.599 268.048L116.902 268.151L114.09 265.945L114.922 265.906Z" fill="#152036"/>
<path d="M113.103 266.029L115.786 268.17L115.083 268.274L112.271 266.067L113.103 266.029Z" fill="#152036"/>
<path d="M258.018 93.0715C256.549 93.6213 254.963 93.7856 253.412 93.5488L248.716 92.8328C247.269 92.6258 245.893 92.075 244.704 91.2266L244.31 90.9492C242.933 89.9552 241.857 88.6006 241.201 87.0346C240.544 85.4686 240.332 83.7517 240.588 82.073L245.149 52.1932L255.289 52.348L268.5 55.754L263.907 85.8531C263.656 87.4712 262.978 88.993 261.942 90.2617C260.907 91.5305 259.553 92.5004 258.018 93.0715Z" fill="#F2A981"/>
<path d="M264.552 81.6859L263.907 85.8208C263.54 88.2406 262.226 90.4153 260.256 91.8669C258.285 93.3185 255.819 93.9281 253.399 93.5617L248.703 92.8457C247.26 92.6329 245.888 92.0777 244.704 91.2266L244.31 90.9492C242.933 89.9552 241.857 88.6006 241.201 87.0346C240.544 85.4686 240.332 83.7517 240.588 82.073L241.233 77.938C241.001 79.4475 246.897 77.293 251.735 79.054C253.119 79.6555 254.655 79.8176 256.134 79.5185C260.559 78.8154 264.353 82.9954 264.552 81.6859Z" fill="url(#paint2_linear_24_686)"/>
<path d="M258.593 68.3394C259.36 67.6943 260.708 68.12 260.979 68.2039C261.313 68.289 261.628 68.4356 261.908 68.6361C262.176 68.8195 262.394 69.065 262.546 69.3515C262.698 69.6379 262.778 69.9569 262.779 70.281C262.775 70.2972 262.768 70.3124 262.758 70.3257C262.748 70.339 262.736 70.3501 262.721 70.3584C262.631 70.4165 262.457 70.2681 262.399 70.223C262.134 69.9603 261.916 69.655 261.754 69.3199C261.25 68.4748 259.586 68.1845 258.702 68.6038C258.573 68.6683 258.302 68.8167 258.264 68.7651C258.225 68.7135 258.425 68.4813 258.593 68.3394Z" fill="#D68056"/>
<path d="M259.115 70.8616C259.872 71.1301 260.673 71.2548 261.476 71.2293C261.74 71.2293 261.895 71.4615 261.682 71.5518C261.209 71.7358 260.695 71.7936 260.192 71.7195C259.661 71.6907 259.16 71.46 258.792 71.0745C258.657 70.9196 258.896 70.7713 259.115 70.8616Z" fill="#D68056"/>
<path d="M262.766 67.4685L258.895 65.9203C258.823 65.8926 258.758 65.8508 258.702 65.7973C258.646 65.7438 258.602 65.6797 258.571 65.6088C258.54 65.5379 258.524 65.4617 258.523 65.3845C258.523 65.3072 258.537 65.2306 258.566 65.1591C258.594 65.0871 258.636 65.0213 258.69 64.9656C258.743 64.9099 258.807 64.8654 258.878 64.8348C258.949 64.8041 259.025 64.7879 259.102 64.7871C259.18 64.7863 259.256 64.801 259.328 64.8302L263.198 66.3719C263.342 66.432 263.457 66.5458 263.518 66.689C263.579 66.8323 263.583 66.9939 263.527 67.1395C263.467 67.2818 263.354 67.3954 263.212 67.4567C263.071 67.518 262.911 67.5222 262.766 67.4685Z" fill="#102051"/>
<path d="M250.419 67.0944C249.884 66.2558 248.484 66.2493 248.187 66.2493C247.842 66.2319 247.497 66.2778 247.168 66.3848C246.868 66.4853 246.595 66.6541 246.371 66.878C246.147 67.1019 245.978 67.3747 245.878 67.6749C245.867 67.7063 245.867 67.7404 245.878 67.7717C245.949 67.8491 246.155 67.7717 246.226 67.733C246.554 67.5681 246.853 67.3501 247.11 67.0879C247.839 66.4429 249.516 66.6428 250.232 67.3137C250.342 67.4105 250.548 67.6362 250.6 67.5975C250.651 67.5588 250.542 67.275 250.419 67.0944Z" fill="#D68056"/>
<path d="M249.174 69.3457C248.37 69.3779 247.567 69.2575 246.807 68.9909C246.562 68.907 246.343 69.0877 246.517 69.236C246.914 69.5539 247.388 69.7629 247.891 69.8424C248.406 69.9717 248.952 69.9027 249.42 69.6489C249.594 69.5392 249.42 69.3263 249.174 69.3457Z" fill="#D68056"/>
<path d="M246.704 65.0172L250.871 64.7011C250.949 64.6946 251.025 64.6728 251.094 64.6368C251.164 64.6008 251.226 64.5514 251.276 64.4914C251.326 64.4315 251.364 64.3621 251.388 64.2874C251.411 64.2127 251.42 64.1341 251.413 64.0561C251.406 63.978 251.384 63.902 251.348 63.8325C251.312 63.7629 251.263 63.7012 251.203 63.6508C251.143 63.6004 251.074 63.5624 250.999 63.539C250.924 63.5156 250.846 63.5071 250.768 63.5142L246.6 63.8303C246.522 63.8368 246.446 63.8586 246.377 63.8946C246.307 63.9306 246.246 63.98 246.195 64.04C246.145 64.1 246.107 64.1693 246.083 64.244C246.06 64.3187 246.052 64.3974 246.059 64.4754C246.065 64.5534 246.087 64.6294 246.123 64.6989C246.159 64.7685 246.208 64.8302 246.268 64.8806C246.328 64.931 246.398 64.969 246.472 64.9924C246.547 65.0159 246.626 65.0243 246.704 65.0172Z" fill="#102051"/>
<path d="M261.611 69.7521C261.566 70.0498 261.404 70.3173 261.162 70.4957C260.919 70.6741 260.616 70.7489 260.318 70.7036C260.02 70.6582 259.753 70.4965 259.574 70.2539C259.396 70.0114 259.321 69.7079 259.366 69.4102C259.412 69.1125 259.574 68.845 259.816 68.6666C259.936 68.5782 260.073 68.5144 260.217 68.4787C260.362 68.4431 260.512 68.4363 260.66 68.4587C260.807 68.4812 260.949 68.5324 261.076 68.6096C261.204 68.6867 261.315 68.7882 261.403 68.9083C261.492 69.0284 261.556 69.1648 261.591 69.3095C261.627 69.4543 261.634 69.6047 261.611 69.7521Z" fill="#0B131D"/>
<path d="M262.166 69.8875C262.127 70.1069 261.766 70.2359 261.347 70.1714C260.928 70.1069 260.618 69.8811 260.657 69.6553C260.695 69.4295 261.05 69.3134 261.469 69.3779C261.889 69.4424 262.198 69.6682 262.166 69.8875Z" fill="white"/>
<path d="M247.123 67.5395C247.088 67.7616 247.12 67.989 247.215 68.1928C247.31 68.3967 247.463 68.5678 247.655 68.6844C247.848 68.8011 248.07 68.8581 248.295 68.8482C248.519 68.8383 248.736 68.7619 248.917 68.6288C249.098 68.4957 249.236 68.3117 249.312 68.1003C249.389 67.8889 249.401 67.6596 249.347 67.4413C249.293 67.2231 249.175 67.0258 249.009 66.8745C248.843 66.7231 248.635 66.6245 248.413 66.5912C248.266 66.5683 248.116 66.5747 247.971 66.61C247.827 66.6453 247.691 66.7089 247.571 66.797C247.451 66.8852 247.35 66.9961 247.273 67.1235C247.196 67.2509 247.145 67.3923 247.123 67.5395Z" fill="#0B131D"/>
<path d="M250.109 68.0491C250.077 68.2684 249.709 68.3974 249.297 68.3329C248.884 68.2684 248.568 68.0362 248.6 67.8169C248.632 67.5975 249 67.475 249.413 67.533C249.826 67.5911 250.142 67.8298 250.109 68.0491Z" fill="white"/>
<path d="M177.416 205.114L158.019 194.219L121.998 255.856L133.248 261.223L138.383 257.527L137.267 255.766L177.416 205.114Z" fill="#0D172B"/>
<path d="M169.481 210.063C175.594 209.223 179.869 203.587 179.03 197.474C178.19 191.361 172.554 187.086 166.441 187.925C160.328 188.765 156.053 194.401 156.892 200.514C157.732 206.627 163.368 210.903 169.481 210.063Z" fill="#0D172B"/>
<path d="M125.236 257.417L124.991 257.269L161.728 196.283L161.973 196.432L125.236 257.417Z" fill="#0B0C0F"/>
<path d="M254.741 79.7701C253.692 79.756 252.655 79.5368 251.69 79.125C251.489 79.0417 251.327 78.8838 251.239 78.6842C251.152 78.4847 251.144 78.2589 251.219 78.0542L252.651 74.1257L252.871 74.2031L251.445 78.138C251.389 78.2854 251.393 78.4485 251.456 78.593C251.519 78.7374 251.635 78.8519 251.78 78.9121C253.141 79.5082 254.653 79.6682 256.109 79.3701L256.167 79.6024C255.701 79.717 255.222 79.7734 254.741 79.7701Z" fill="#102051"/>
<path d="M193.969 202.631C192.846 202.631 193.001 200.902 194.104 200.902H194.304C193.686 198.364 192.133 196.152 189.956 194.707C187.78 193.263 185.138 192.692 182.559 193.108C179.98 193.524 177.652 194.897 176.04 196.953C174.429 199.009 173.651 201.597 173.862 204.201C174.074 206.805 175.259 209.234 177.181 211.003C179.104 212.772 181.622 213.752 184.235 213.746C186.847 213.741 189.362 212.752 191.277 210.975C193.192 209.198 194.368 206.764 194.569 204.16C194.604 203.651 194.604 203.14 194.569 202.631H193.969Z" fill="#152036"/>
<path d="M260.713 213.791C266.931 208.465 267.654 199.107 262.329 192.889C257.003 186.671 247.645 185.948 241.427 191.274C235.209 196.599 234.486 205.957 239.811 212.175C245.137 218.393 254.495 219.116 260.713 213.791Z" fill="#152036"/>
<path d="M252.709 217.203C252.999 209.856 250.264 202.237 250.987 194.909C251.232 192.471 251.413 190.026 251.554 187.575C250.654 187.673 249.747 187.683 248.845 187.607L181.383 193.374L182.99 213.668L248.31 217.268L252.709 217.203Z" fill="#152036"/>
<path d="M247.929 209.004C239.756 208.894 231.467 208.927 223.416 208.959C212.108 208.998 200.407 209.043 188.957 208.675V208.391C200.394 208.759 212.095 208.714 223.404 208.669C231.422 208.669 239.711 208.611 247.916 208.72L247.929 209.004Z" fill="#0B0C0F"/>
<path d="M254.38 86.066C254.215 85.7946 254.013 85.5472 253.78 85.3306C253.173 84.7845 252.401 84.4575 251.587 84.4017V84.1695C252.453 84.2309 253.274 84.578 253.922 85.1564C254.172 85.3883 254.389 85.653 254.567 85.9434L254.38 86.066Z" fill="#102051"/>
<path d="M254.928 82.5826C254.317 82.5817 253.708 82.519 253.109 82.3955L253.161 82.1633C256.715 82.8858 258.605 81.2279 258.625 81.2086L258.78 81.3827C257.678 82.2245 256.314 82.6495 254.928 82.5826Z" fill="#102051"/>
<path d="M258.973 81.8085C258.603 81.4701 258.362 81.0144 258.29 80.5183L258.522 80.4861C258.591 80.918 258.805 81.3137 259.128 81.6085L258.973 81.8085Z" fill="#102051"/>
<path d="M264.411 74.8503C266.624 73.2234 267.099 70.1104 265.472 67.8972C263.845 65.6841 260.732 65.2089 258.519 66.8358C256.306 68.4627 255.831 71.5757 257.458 73.7888C259.084 76.002 262.197 76.4772 264.411 74.8503Z" stroke="white" stroke-width="0.65" stroke-miterlimit="10"/>
<path d="M248.575 73.7871C251.212 73.0454 252.748 70.3066 252.007 67.6696C251.265 65.0327 248.526 63.4963 245.889 64.2379C243.252 64.9795 241.716 67.7184 242.458 70.3553C243.199 72.9923 245.938 74.5287 248.575 73.7871Z" stroke="white" stroke-width="0.64821" stroke-miterlimit="10"/>
<path d="M256.432 70.1972C256.432 70.1972 254.497 68.7199 252.439 69.5521L252.316 69.2683C254.523 68.3394 256.542 69.8553 256.625 69.9133L256.432 70.1972Z" fill="white"/>
<path d="M251.542 65.2224L251.496 65.529L257.077 66.3746L257.124 66.0681L251.542 65.2224Z" fill="white"/>
<path d="M193.188 268.351L192.124 279.13L184.376 279.44L185.015 268.674L193.188 268.351Z" fill="#F2A981"/>
<path d="M183.938 275.789L193.504 276.195L193.73 281.917L192.137 281.975L191.924 283.91L183.538 283.82L183.822 282.02C183.794 282.04 183.763 282.054 183.73 282.062C183.697 282.07 183.663 282.072 183.629 282.066C183.596 282.061 183.563 282.049 183.534 282.031C183.506 282.013 183.48 281.99 183.461 281.962C183.319 281.756 183.938 275.789 183.938 275.789Z" fill="#CFE6FF"/>
<path d="M164.205 293.193L164.257 294.412L184.299 293.606L185.467 292.341L186.679 293.509L193.427 292.632L193.324 290.167L187.008 290.419L177.765 290.787L164.205 293.193Z" fill="#152036"/>
<path d="M193.737 281.917L183.835 282.026L191.982 283.433L192.073 282.562L193.737 281.917Z" fill="#102051"/>
<path d="M191.924 283.917L193.143 285.658L193.324 290.174L192.795 291.341L186.248 292.244L185.648 291.599C185.206 291.884 184.734 292.12 184.241 292.303C183.816 292.386 164.205 293.173 164.205 293.173L164.154 290.664L176.965 287.652L183.545 283.781L191.924 283.917Z" fill="#356AB0"/>
<path d="M180.842 285.407L184.209 286.058L183.635 286.471L180.119 285.832L180.842 285.407Z" fill="#152036"/>
<path d="M179.287 286.368L182.661 287.013L182.086 287.432L178.571 286.787L179.287 286.368Z" fill="#152036"/>
<path d="M209.517 186.902L172.778 188.699L172.792 188.983L209.53 187.186L209.517 186.902Z" fill="#0B0C0F"/>
<path d="M195.479 205.353L195.53 211.107L195.072 273.944H180.868L175.198 210.623L174.778 205.069L195.479 205.353Z" fill="#152036"/>
<path d="M185.867 193.858C184.507 193.765 183.142 193.94 181.85 194.375C180.557 194.809 179.363 195.494 178.336 196.389C176.26 198.199 174.989 200.758 174.801 203.505C174.612 206.252 175.523 208.961 177.332 211.036C179.141 213.111 181.701 214.383 184.448 214.571C185.451 214.641 186.46 214.563 187.441 214.339C187.312 214.087 187.189 213.829 187.047 213.578C186.506 212.604 188.08 211.875 188.621 212.849C188.802 213.165 188.957 213.494 189.118 213.81C191.283 212.919 193.083 211.322 194.226 209.279C195.369 207.236 195.788 204.866 195.414 202.555C195.041 200.244 193.897 198.127 192.168 196.548C190.44 194.969 188.228 194.021 185.893 193.858H185.867Z" fill="#152036"/>
<path d="M190.157 273.95C189.35 256.63 189.628 238.942 189.899 221.835C189.976 217.003 190.053 212.01 190.105 207.088H190.389C190.337 212.017 190.26 217.01 190.182 221.841C189.911 238.942 189.634 256.624 190.44 273.937L190.157 273.95Z" fill="#0B0C0F"/>
<path d="M230.809 98.045C228.482 97.6336 226.084 98.0846 224.066 99.3136C222.047 100.543 220.546 102.465 219.843 104.722C217.907 110.998 205.509 158.469 210.811 166.242C216.114 174.015 223.713 168.539 229.235 151.122C231.97 142.516 237.427 119.7 236.834 108.998C236.589 104.405 230.809 98.045 230.809 98.045Z" fill="#EC9B00"/>
<path d="M236.873 109.003C237.704 103.555 234.49 98.5443 229.693 97.812C224.897 97.0797 220.334 100.903 219.502 106.351C218.67 111.799 221.885 116.81 226.681 117.542C231.478 118.274 236.041 114.451 236.873 109.003Z" fill="#EC9B00"/>
<path d="M222.96 151.248L222.708 151.253L222.797 155.116L223.048 155.111L222.96 151.248Z" fill="#102051"/>
<path d="M223.185 163.235C223.811 159.136 221.392 155.365 217.782 154.814C214.172 154.263 210.738 157.14 210.112 161.239C209.486 165.339 211.905 169.109 215.515 169.66C219.125 170.211 222.559 167.334 223.185 163.235Z" fill="#EC9B00"/>
<path d="M282.267 108.166C282.267 108.166 297.91 146.348 299.148 167.61L288.182 178.634C278.506 174.976 274.055 149.573 271.623 139.555C270.91 136.588 270.692 133.524 270.978 130.486L265.54 113.978L282.267 108.166Z" fill="#EC9B00"/>
<path d="M275.022 153.225C273.397 148.651 269.778 136.885 271.435 126.396L271.674 126.435C270.023 136.872 273.609 148.587 275.254 153.141L275.022 153.225Z" fill="#102051"/>
<path d="M270.816 130.576C270.412 129.431 270.141 128.242 270.01 127.035C269.884 125.854 269.624 124.692 269.236 123.571L269.481 123.442C269.885 124.589 270.155 125.78 270.287 126.989C270.414 128.17 270.674 129.332 271.061 130.454L270.816 130.576Z" fill="#4F2E4D"/>
<path d="M283.132 113.644C283.88 108.738 280.517 104.156 275.622 103.409C270.727 102.663 266.151 106.035 265.403 110.941C264.655 115.847 268.017 120.429 272.913 121.176C277.808 121.922 282.383 118.55 283.132 113.644Z" fill="#EC9B00"/>
<path d="M299.445 171.551C299.181 173.267 298.415 174.867 297.242 176.147C296.069 177.428 294.543 178.332 292.857 178.745C291.17 179.158 289.399 179.062 287.768 178.469C286.136 177.876 284.717 176.812 283.689 175.412C282.662 174.012 282.073 172.339 281.996 170.605C281.92 168.87 282.359 167.152 283.259 165.667C284.159 164.182 285.479 162.998 287.052 162.263C288.626 161.528 290.381 161.277 292.097 161.54C294.399 161.894 296.465 163.148 297.843 165.025C299.221 166.902 299.797 169.249 299.445 171.551Z" fill="#EC9B00"/>
<path d="M204.613 175.338L176.565 161.701L178.52 157.005L210.406 166.365L204.613 175.338Z" fill="#F2A981"/>
<path d="M205.354 175.596C203.419 174.912 202.716 172.203 203.819 169.551C204.922 166.9 207.393 165.3 209.341 165.984C211.289 166.668 211.985 169.377 210.882 172.029C209.779 174.68 207.289 176.28 205.354 175.596Z" fill="#F2A981"/>
<path d="M176.326 162.236C175.255 161.862 174.881 160.378 175.488 158.927C176.094 157.476 177.423 156.598 178.513 156.992C179.603 157.385 179.958 158.85 179.358 160.308C178.758 161.765 177.41 162.617 176.326 162.236Z" fill="#F2A981"/>
<path d="M220.385 169.01C206.703 162.701 182.448 155.618 182.448 155.618L179.448 164.959C179.448 164.959 182.112 166.5 183.099 167.674C184.086 168.848 184.196 167.797 186.273 168.79C189.866 170.506 198.53 174.428 206.432 178.099C209.012 179.299 213.192 179.95 215.424 180.963L219.669 179.55L220.385 169.01Z" fill="#EC9B00"/>
<path d="M214.772 180.995C212.295 180.131 211.418 176.692 212.837 173.325C214.256 169.958 217.353 167.939 219.849 168.81C222.346 169.68 223.197 173.112 221.784 176.48C220.372 179.847 217.243 181.866 214.772 180.995Z" fill="#356AB0"/>
<path d="M177.268 164.12C174.999 165.024 172.786 166.064 170.643 167.236C168.288 168.655 163.25 172.919 163.25 172.919C163.16 172.751 161.676 171.977 161.78 171.5C162.379 168.732 167.237 162.217 167.237 162.217L177.21 157.256C177.21 157.256 180.061 161.914 180.029 162.107C179.15 162.833 178.228 163.505 177.268 164.12Z" fill="#F2A981"/>
<path d="M178.184 162.688C177.603 163.777 176.936 164.819 176.191 165.804C175.997 166.004 171.598 168.571 171.598 168.571L170.733 168.526L170.901 167.681L172.191 166.391L173.52 165.991C173.52 165.991 174.378 164.313 174.43 164.159C174.481 164.004 178.184 162.688 178.184 162.688Z" fill="#F2A981"/>
<path d="M179.835 162.275C179.377 162.606 178.831 162.794 178.266 162.814C177.701 162.835 177.142 162.688 176.661 162.391C176.18 162.094 175.797 161.661 175.562 161.147C175.327 160.633 175.25 160.06 175.34 159.502C175.431 158.944 175.685 158.425 176.07 158.012C176.455 157.598 176.954 157.307 177.505 157.178C178.055 157.048 178.631 157.084 179.161 157.282C179.691 157.479 180.15 157.83 180.48 158.288C180.923 158.903 181.103 159.668 180.982 160.415C180.861 161.163 180.449 161.832 179.835 162.275Z" fill="#F2A981"/>
<path d="M246.639 55.1928C245.8 57.9924 243.336 64.2238 243.413 63.9593C243.491 63.6948 245.213 52.1609 245.213 52.1609L246.639 55.1928Z" fill="#102051"/>
<path d="M268.514 55.7475C270.307 55.7475 276.416 51.9867 273.674 44.6974C270.933 37.4081 251.677 37.5242 253.98 47.6131C253.98 47.6131 256.302 42.3171 249.806 42.1493C243.311 41.9816 240.395 48.4646 245.181 52.1867L243.994 56.3732C243.994 56.3732 251.387 56.5345 254.773 53.2124C254.773 53.2124 264.785 58.5665 266.346 59.2245L266.63 68.2555C267.32 67.9846 269.894 60.3533 269.894 60.3533L268.514 55.7475Z" fill="#102051"/>
<path d="M257.863 102.67L247.567 120.977L232.84 125.351L230.976 107.431L240.555 100.025L249.354 101.374L257.863 102.67Z" fill="#356AB0"/>
<path d="M257.864 102.67C257.864 102.67 249.278 113.378 244.13 111.45C238.982 109.521 240.55 100.025 240.55 100.025L226.855 97.8902L223.565 121.487L219.695 140.194L213.844 164.507L212.928 165.978L210.606 171.841L209.838 176.576L210.612 177.918L211.38 178.989L221.952 181.956L237.434 182.537L250.703 185.523L263.495 186.51L266.901 181.718L270.939 146.884L279.79 107.05C278.661 106.192 276.906 103.373 275.494 103.367C269.565 103.367 263.708 103.78 257.864 102.638V102.67Z" fill="#EC9B00"/>
<path d="M281.626 116.723C283.533 112.261 281.462 107.098 277 105.191C272.538 103.284 267.375 105.355 265.468 109.817C263.561 114.279 265.633 119.442 270.095 121.349C274.557 123.256 279.72 121.185 281.626 116.723Z" fill="#EC9B00"/>
<path d="M222.978 121.79L222.778 117.152H223.01L223.171 120.739C224.101 118.427 224.638 115.977 224.758 113.488H224.99C224.864 116.182 224.252 118.83 223.184 121.306L222.978 121.79Z" fill="#102051"/>
<path d="M211.263 179.073L209.696 176.621V176.576C209.903 175.056 210.193 173.549 210.567 172.061C211.101 170.381 211.748 168.739 212.502 167.145L214.54 163.275L222.236 126.989L222.468 127.041L214.727 163.365L212.689 167.236C211.934 168.815 211.287 170.445 210.754 172.112C210.391 173.582 210.105 175.07 209.896 176.57L211.418 178.95L211.263 179.073Z" fill="#102051"/>
<path d="M264.43 195.903C261.353 194.193 257.625 190.703 256.689 187.104L256.954 187.033C257.851 190.561 261.521 193.98 264.553 195.67L264.43 195.903Z" fill="#0B0C0F"/>
<path d="M264.14 103.386C264.14 103.386 246.336 120.345 243.15 126.306C241.531 129.331 240.157 134.111 239.195 138.085C239.175 138.256 239.087 138.412 238.952 138.518C238.816 138.625 238.644 138.673 238.473 138.652C238.302 138.632 238.146 138.544 238.039 138.409C237.933 138.273 237.885 138.101 237.905 137.93C237.905 133.827 237.692 128.802 236.912 125.351C235.293 118.191 234.332 98.6384 234.332 98.6384L249.478 99.419L264.14 103.386Z" fill="white"/>
<path d="M237.317 182.563C237.214 181.33 234.834 152.373 236.24 147.516C236.416 146.767 236.535 146.006 236.595 145.239C236.703 143.69 236.991 142.16 237.453 140.678C237.539 140.35 237.576 140.011 237.563 139.672C237.548 139.295 237.591 138.919 237.692 138.556C238.426 136.229 238.938 133.838 239.22 131.415C240.268 123.813 242.349 116.391 245.407 109.353L249.374 100.238L249.587 100.329L245.62 109.443C242.575 116.464 240.5 123.867 239.453 131.447C239.169 133.886 238.653 136.292 237.911 138.633C237.819 138.971 237.782 139.322 237.801 139.672C237.815 140.037 237.774 140.402 237.679 140.755C237.224 142.223 236.938 143.738 236.827 145.271C236.77 146.053 236.649 146.83 236.466 147.593C235.073 152.399 237.53 182.253 237.55 182.55L237.317 182.563Z" fill="#102051"/>
<path d="M237.885 141.136L237.718 140.968C238.124 140.528 238.591 140.147 239.105 139.839C239.362 139.169 239.577 138.484 239.75 137.788C240.388 135.345 241.198 132.95 242.175 130.621C244.065 126.428 248.316 120.861 252.496 117.075C256.567 113.411 264.682 103.438 264.753 103.341L264.933 103.489C264.856 103.586 256.728 113.572 252.645 117.249C248.458 121.016 244.259 126.557 242.324 130.718C241.354 133.024 240.548 135.395 239.911 137.814C239.401 139.633 239.266 139.994 239.111 140.039C238.654 140.347 238.242 140.716 237.885 141.136Z" fill="#102051"/>
<path d="M237.937 139.878C237.565 139.265 237.254 138.617 237.008 137.943C236.621 137.033 236.447 135.33 236.189 132.743C235.97 130.537 235.673 127.525 235.105 123.777C234.46 119.313 233.976 112.727 233.615 107.431C233.318 103.115 233.08 99.6899 232.834 98.8836L233.06 98.8126C233.312 99.6577 233.551 103.083 233.847 107.418C234.215 112.701 234.666 119.287 235.337 123.738C235.905 127.493 236.208 130.512 236.428 132.718C236.679 135.298 236.853 136.975 237.227 137.846C237.464 138.492 237.762 139.114 238.118 139.704L237.937 139.878Z" fill="#102051"/>
<path d="M251.141 106.515L249.483 99.419L260.366 98.2321L261.269 103.219L251.141 106.515Z" fill="#102051"/>
<path d="M249.483 99.419L251.922 105.283L261.269 103.219L260.366 98.2321L249.483 99.419Z" fill="white"/>
<path d="M246.252 105.773L249.955 99.49L239.917 95.1099L237.569 99.5996L246.252 105.773Z" fill="#102051"/>
<path d="M249.955 99.49L245.871 104.354L237.569 99.5996L239.917 95.1099L249.955 99.49Z" fill="white"/>
<path d="M238.672 138.685C238.43 138.676 238.198 138.582 238.019 138.419C237.839 138.256 237.723 138.035 237.692 137.794C237.618 137.281 237.618 136.76 237.692 136.246C238.014 134.137 237.595 129.712 237.046 126.822C236.685 125.028 235.905 120.539 235.492 116.397C234.66 108.147 234.202 98.7417 234.202 98.6449H234.44C234.44 98.7417 234.892 108.147 235.73 116.391C236.15 120.519 236.93 124.996 237.279 126.789C237.859 129.699 238.272 134.156 237.924 136.291C237.857 136.784 237.857 137.283 237.924 137.775C237.949 137.958 238.038 138.127 238.174 138.252C238.311 138.377 238.487 138.45 238.672 138.459C238.724 138.462 238.775 138.455 238.824 138.438C238.873 138.421 238.918 138.394 238.956 138.359C238.994 138.324 239.024 138.282 239.045 138.235C239.066 138.187 239.078 138.136 239.078 138.085C239.549 134.388 241.814 128.28 243.375 125.693C246.6 120.332 263.882 103.483 264.056 103.309L264.223 103.483C264.049 103.651 246.806 120.481 243.581 125.815C241.517 129.662 240.078 133.812 239.317 138.111C239.3 138.269 239.224 138.415 239.105 138.521C238.986 138.627 238.832 138.686 238.672 138.685Z" fill="#102051"/>
<path d="M249.903 109.547C249.854 109.689 249.763 109.813 249.643 109.904C249.522 109.995 249.378 110.048 249.227 110.056C249.077 110.065 248.927 110.029 248.797 109.952C248.668 109.875 248.564 109.762 248.498 109.626C248.433 109.49 248.41 109.338 248.431 109.189C248.452 109.039 248.518 108.9 248.618 108.788C248.719 108.676 248.851 108.596 248.997 108.559C249.143 108.522 249.297 108.529 249.439 108.579C249.534 108.611 249.621 108.661 249.696 108.728C249.771 108.794 249.832 108.875 249.876 108.965C249.919 109.055 249.944 109.153 249.949 109.253C249.953 109.353 249.938 109.453 249.903 109.547V109.547Z" stroke="#102051" stroke-width="0.49" stroke-miterlimit="10"/>
<path d="M248.252 114.223C248.185 114.413 248.045 114.568 247.864 114.655C247.683 114.742 247.474 114.754 247.284 114.688C247.094 114.619 246.939 114.479 246.852 114.296C246.765 114.114 246.754 113.905 246.82 113.714C246.888 113.524 247.029 113.369 247.212 113.283C247.395 113.197 247.604 113.187 247.794 113.256C247.888 113.289 247.974 113.34 248.048 113.407C248.122 113.474 248.182 113.554 248.224 113.644C248.267 113.734 248.291 113.832 248.296 113.931C248.301 114.031 248.286 114.13 248.252 114.223V114.223Z" stroke="#102051" stroke-width="0.49" stroke-miterlimit="10"/>
<path d="M246.639 118.9C246.571 119.091 246.431 119.247 246.248 119.334C246.066 119.421 245.856 119.432 245.665 119.365C245.474 119.297 245.318 119.157 245.231 118.974C245.144 118.791 245.133 118.581 245.201 118.391C245.268 118.2 245.409 118.044 245.591 117.957C245.774 117.87 245.984 117.859 246.175 117.926C246.365 117.994 246.521 118.134 246.609 118.317C246.696 118.5 246.707 118.709 246.639 118.9V118.9Z" stroke="#102051" stroke-width="0.49" stroke-miterlimit="10"/>
<path d="M215.727 180.582L215.082 178.899C214.576 177.95 214.203 176.936 213.973 175.886L214.198 175.822L215.295 178.802C215.347 178.899 215.398 178.995 215.456 179.086C215.502 177.08 215.858 175.093 216.514 173.196L216.74 173.274C216.045 175.267 215.687 177.362 215.682 179.473C215.837 179.718 215.998 179.95 216.166 180.182L215.972 180.318C215.876 180.189 215.779 180.053 215.689 179.911L215.727 180.582Z" fill="#102051"/>
<path d="M252.716 185.298L252.632 185.072C253.636 184.702 254.593 184.214 255.483 183.62C256.002 182.957 256.663 182.42 257.418 182.047L258.063 181.724L257.541 182.234C256.945 182.812 256.297 183.334 255.606 183.795C255.528 183.898 255.457 183.995 255.386 184.104C257.406 183.174 259.126 181.7 260.353 179.847L260.553 179.976C259.229 181.979 257.344 183.55 255.135 184.491L254.812 184.627L254.986 184.324C254.986 184.266 255.051 184.207 255.09 184.149C254.336 184.606 253.541 184.99 252.716 185.298Z" fill="#102051"/>
<path d="M228.7 181.434L228.481 181.272C227.099 180.263 225.824 179.115 224.675 177.847C224.737 178.491 224.963 179.108 225.329 179.641C225.696 180.173 226.192 180.604 226.771 180.892L226.668 181.105C225.996 180.777 225.429 180.267 225.033 179.633C224.636 178.999 224.425 178.266 224.423 177.518V177.208L224.63 177.441C225.765 178.728 227.03 179.895 228.403 180.924C228.037 177.425 227.957 173.902 228.165 170.39H228.403C228.185 173.98 228.274 177.582 228.668 181.156L228.7 181.434Z" fill="#102051"/>
<path d="M246.42 182.679H246.246V182.44C246.568 182.462 246.892 182.413 247.194 182.294C247.495 182.176 247.766 181.992 247.987 181.756L248.161 181.917C247.937 182.155 247.668 182.345 247.368 182.476C247.069 182.607 246.746 182.676 246.42 182.679Z" fill="#102051"/>
<path d="M263.895 183.182L261.742 184.951L261.894 185.136L264.047 183.367L263.895 183.182Z" fill="#102051"/>
<path d="M155.684 172.396V172.506C155.765 172.656 155.808 172.825 155.806 172.996V173.473C155.804 173.609 155.764 173.741 155.69 173.854H242.962V172.416L155.684 172.396Z" fill="white"/>
<path d="M155.548 172.28V172.319C155.693 172.489 155.776 172.702 155.787 172.925V172.506H242.84V173.706H155.787V173.48C155.774 173.654 155.701 173.818 155.581 173.944H243.078V172.274L155.548 172.28Z" fill="#102051"/>
<path d="M243.517 173.067H232.538L230.603 151.289H245.453L243.517 173.067Z" fill="#C6C6E5"/>
<path d="M275.196 175.66L244.729 170.68L244.968 165.591L278.357 165.378L275.196 175.66Z" fill="#F2A981"/>
<path d="M278.387 175.355C281.075 174.325 282.419 171.311 281.39 168.623C280.36 165.935 277.346 164.591 274.658 165.62C271.97 166.65 270.625 169.664 271.655 172.352C272.685 175.04 275.699 176.385 278.387 175.355Z" fill="#F2A981"/>
<path d="M244.704 171.261C244.141 171.233 243.599 171.04 243.146 170.704C242.693 170.369 242.349 169.907 242.159 169.376C241.968 168.846 241.94 168.271 242.076 167.724C242.212 167.177 242.507 166.683 242.924 166.303C243.341 165.924 243.861 165.677 244.419 165.593C244.976 165.51 245.546 165.593 246.056 165.833C246.566 166.073 246.993 166.458 247.284 166.941C247.575 167.424 247.717 167.982 247.691 168.545C247.654 169.301 247.319 170.011 246.759 170.521C246.199 171.03 245.46 171.296 244.704 171.261Z" fill="#F2A981"/>
<path d="M292.646 165.242C271.746 162.823 249.426 163.178 249.426 163.178C250.135 166.522 249.911 169.996 248.781 173.222L248.523 173.951C248.523 173.951 254.296 173.841 256.161 174.712C257.902 175.525 257.644 174.531 260.837 174.931C266.353 175.628 266.882 176.409 278.899 177.847C282.828 178.312 288.614 177.847 292.014 178.189L296.852 175.667L292.646 165.242Z" fill="#EC9B00"/>
<path d="M295.884 176.803C298.628 174.394 298.9 170.216 296.49 167.472C294.081 164.728 289.904 164.456 287.159 166.865C284.415 169.274 284.143 173.452 286.553 176.196C288.962 178.94 293.139 179.212 295.884 176.803Z" fill="#EC9B00"/>
<path d="M244.098 172.106C243.416 172.073 242.759 171.839 242.21 171.433C241.662 171.027 241.246 170.468 241.015 169.826C240.784 169.183 240.749 168.487 240.914 167.825C241.079 167.162 241.436 166.564 241.941 166.105C242.446 165.646 243.076 165.347 243.751 165.246C244.426 165.145 245.116 165.246 245.733 165.537C246.351 165.828 246.868 166.295 247.22 166.88C247.572 167.465 247.742 168.141 247.71 168.823C247.688 169.275 247.578 169.719 247.385 170.13C247.192 170.54 246.919 170.908 246.584 171.213C246.248 171.518 245.856 171.753 245.43 171.907C245.003 172.06 244.55 172.128 244.098 172.106Z" fill="#F2A981"/>
<path d="M244.427 165.21C244.427 165.21 233.712 164.92 231.674 163.365C231.674 163.365 231.093 162.52 230.235 163.365C229.377 164.21 230.074 170.906 231.248 172.538C232.422 174.17 234.628 174.37 235.067 174.125C235.506 173.88 243.801 172.08 243.801 172.08L244.427 165.21Z" fill="#F2A981"/>
<path d="M256.128 294.87H250.464L305.696 177.57H312.043L256.128 294.87Z" fill="#262C38"/>
<path d="M257.767 294.87H252.103L307.334 177.57H313.682L257.767 294.87Z" fill="#383F53"/>
<path d="M310.108 294.87H315.778L252.644 177.57H246.297L310.108 294.87Z" fill="#262C38"/>
<path d="M311.585 294.87H317.255L254.122 177.57H247.774L311.585 294.87Z" fill="#383F53"/>
<path d="M329.344 173.919H49.6143V179.189H329.344V173.919Z" fill="#FFA66C"/>
<path d="M329.351 173.919H230.841V179.189H329.351V173.919Z" fill="#E87C3A"/>
<path d="M329.345 179.453H230.571V173.919C230.571 173.848 230.599 173.781 230.648 173.732C230.698 173.682 230.765 173.654 230.835 173.654C230.905 173.654 230.973 173.682 231.022 173.732C231.072 173.781 231.1 173.848 231.1 173.919V178.957H329.345C329.415 178.957 329.482 178.984 329.532 179.034C329.581 179.084 329.609 179.151 329.609 179.221C329.609 179.291 329.581 179.359 329.532 179.408C329.482 179.458 329.415 179.486 329.345 179.486V179.453Z" fill="#16063D"/>
<path d="M241.479 164.933C244.33 164.101 244.517 162.004 244.517 162.004C244.517 162.004 245.162 162.004 245.465 163.359C245.768 164.713 243.117 166.474 243.117 166.474L241.479 164.933Z" fill="#F2A981"/>
<path d="M245.446 163.359C245.306 163.73 245.267 164.132 245.334 164.523C245.401 164.914 245.571 165.281 245.827 165.584L240.331 167.584L243.466 165.552L245.446 163.359Z" fill="#F2A981"/>
<path d="M231.06 156.469C233.652 157.319 236.448 157.319 239.04 156.469C240.977 155.87 243.05 155.87 244.987 156.469L244.497 162.004C244.497 162.004 244.303 165.01 240.33 164.997C240.33 164.997 233.428 164.849 231.673 163.365L231.06 156.469Z" fill="#152036"/>
<path d="M245.826 150.509H229.854V152.07H245.826V150.509Z" fill="#CED4EF"/>
<path d="M245.439 151.264H233.299C233.205 151.264 233.115 151.226 233.048 151.16C232.982 151.093 232.944 151.003 232.944 150.909C232.944 150.815 232.982 150.724 233.048 150.658C233.115 150.591 233.205 150.554 233.299 150.554H245.439C245.534 150.554 245.624 150.591 245.69 150.658C245.757 150.724 245.794 150.815 245.794 150.909C245.794 151.003 245.757 151.093 245.69 151.16C245.624 151.226 245.534 151.264 245.439 151.264Z" fill="#DADFF2"/>
<path d="M248.632 173.977L248.407 173.925C248.407 173.841 250.213 165.578 249.303 163.223L249.239 163.056H249.413C249.639 163.056 271.836 163.791 282.892 164.113V164.352C272.352 164.043 251.684 163.365 249.587 163.301C250.387 165.907 248.71 173.641 248.632 173.977Z" fill="#102051"/>
<path d="M348 294.464H51.8398V295.276H348V294.464Z" stroke="#FED23D" stroke-miterlimit="10"/>
<path d="M154.755 172.048H127.707L131.842 154.999H158.89L154.755 172.048Z" fill="#102051"/>
<path d="M153.671 172.048H126.624L130.758 154.999H157.806L153.671 172.048Z" fill="#356AB0"/>
<path d="M166.102 172.048H126.624V174.125H166.102V172.048Z" fill="#102051"/>
<path d="M129.436 160.437H156.787L156.342 162.417H128.958L129.436 160.437Z" fill="#102051"/>
<path d="M203.574 84.9952H158.651V85.208C158.642 85.3216 158.611 85.4322 158.559 85.5337C158.508 85.6351 158.436 85.7254 158.35 85.7994C158.263 85.8734 158.163 85.9296 158.055 85.9648C157.947 86 157.832 86.0136 157.719 86.0047C157.605 85.9958 157.495 85.9646 157.393 85.913C157.292 85.8613 157.201 85.7902 157.128 85.7036C157.054 85.6171 156.997 85.5168 156.962 85.4085C156.927 85.3002 156.913 85.1861 156.922 85.0726V84.9952H122.14V85.6854C122.12 85.9148 122.011 86.1272 121.836 86.2769C121.661 86.4265 121.434 86.5014 121.204 86.4853C120.978 86.4593 120.77 86.3482 120.623 86.1745C120.475 86.0008 120.4 85.7775 120.411 85.5499V84.9952H93.6792C93.3558 84.9952 93.0457 85.1236 92.8171 85.3522C92.5884 85.5809 92.46 85.891 92.46 86.2144V159.108C92.4617 159.43 92.5909 159.738 92.8194 159.966C93.0478 160.193 93.3569 160.32 93.6792 160.32H203.555C203.714 160.32 203.872 160.289 204.019 160.228C204.166 160.167 204.299 160.078 204.412 159.965C204.525 159.853 204.614 159.719 204.675 159.572C204.736 159.425 204.767 159.267 204.767 159.108V86.2144C204.767 85.8954 204.642 85.5891 204.419 85.3612C204.196 85.1333 203.893 85.0019 203.574 84.9952Z" fill="white"/>
<path d="M203.574 84.879H158.651V85.1177H203.574C203.865 85.1177 204.144 85.2333 204.35 85.4389C204.555 85.6446 204.671 85.9235 204.671 86.2144V159.108C204.671 159.399 204.555 159.677 204.35 159.883C204.144 160.089 203.865 160.204 203.574 160.204H93.6986C93.4078 160.204 93.1288 160.089 92.9232 159.883C92.7175 159.677 92.602 159.399 92.602 159.108V86.2144C92.602 85.9235 92.7175 85.6446 92.9232 85.4389C93.1288 85.2333 93.4078 85.1177 93.6986 85.1177H156.916V84.879H93.6986C93.3445 84.879 93.0048 85.0197 92.7544 85.2701C92.504 85.5206 92.3633 85.8602 92.3633 86.2144V159.108C92.3633 159.462 92.504 159.801 92.7544 160.052C93.0048 160.302 93.3445 160.443 93.6986 160.443H203.574C203.928 160.443 204.268 160.302 204.518 160.052C204.769 159.801 204.909 159.462 204.909 159.108V86.2144C204.909 85.8602 204.769 85.5206 204.518 85.2701C204.268 85.0197 203.928 84.879 203.574 84.879Z" fill="#102051"/>
<path d="M201.142 84.879H94.1501C93.1633 84.879 92.3633 85.679 92.3633 86.6659V158.663C92.3633 159.649 93.1633 160.449 94.1501 160.449H201.142C202.129 160.449 202.929 159.649 202.929 158.663V86.6659C202.929 85.679 202.129 84.879 201.142 84.879Z" fill="#5582CF"/>
<path d="M201.606 84.9952L145.394 85.1371C145.343 85.2403 93.6853 84.9952 93.6853 84.9952C93.5269 84.9952 93.37 85.0263 93.2237 85.087C93.0773 85.1476 92.9443 85.2364 92.8323 85.3485C92.7203 85.4605 92.6314 85.5935 92.5708 85.7398C92.5102 85.8862 92.479 86.043 92.479 86.2014V159.127C92.4807 159.446 92.6086 159.751 92.8346 159.976C93.0607 160.201 93.3665 160.327 93.6853 160.327H201.606C201.924 160.327 202.23 160.2 202.455 159.975C202.68 159.75 202.806 159.445 202.806 159.127V86.2337C202.81 86.0731 202.782 85.9133 202.724 85.7637C202.666 85.614 202.578 85.4775 202.467 85.3621C202.355 85.2467 202.221 85.1548 202.073 85.0918C201.926 85.0288 201.767 84.996 201.606 84.9952Z" fill="#356AB0"/>
<path d="M201.607 84.879V85.1177C201.894 85.1177 202.17 85.2319 202.373 85.4351C202.576 85.6384 202.69 85.914 202.69 86.2014V159.127C202.69 159.414 202.576 159.69 202.373 159.893C202.17 160.097 201.894 160.211 201.607 160.211H93.6857C93.3983 160.211 93.1226 160.097 92.9194 159.893C92.7161 159.69 92.602 159.414 92.602 159.127V86.2337C92.602 85.9463 92.7161 85.6706 92.9194 85.4674C93.1226 85.2641 93.3983 85.15 93.6857 85.15V84.9113C93.3405 84.9112 93.009 85.0461 92.7619 85.2871C92.5148 85.5282 92.3717 85.8563 92.3633 86.2014V159.127C92.3633 159.478 92.5026 159.814 92.7506 160.062C92.9986 160.31 93.335 160.449 93.6857 160.449H201.607C201.952 160.441 202.28 160.298 202.521 160.051C202.762 159.804 202.897 159.472 202.897 159.127V86.2337C202.901 86.06 202.871 85.8872 202.808 85.7251C202.746 85.563 202.652 85.4149 202.532 85.2891C202.413 85.1633 202.269 85.0623 202.11 84.9919C201.951 84.9216 201.78 84.8832 201.607 84.879Z" fill="#102051"/>
<path d="M147.646 128.615C150.047 128.615 151.994 125.949 151.994 122.661C151.994 119.373 150.047 116.707 147.646 116.707C145.245 116.707 143.298 119.373 143.298 122.661C143.298 125.949 145.245 128.615 147.646 128.615Z" stroke="#80AACF" stroke-width="0.87" stroke-miterlimit="10" stroke-linecap="round"/>
<path d="M113.109 160.566H94.1567C93.6548 160.564 93.1741 160.363 92.8199 160.008C92.4656 159.652 92.2666 159.171 92.2666 158.669V117.571H92.4989V158.669C92.5006 159.108 92.6758 159.529 92.9863 159.839C93.2969 160.15 93.7175 160.325 94.1567 160.327H113.109V160.566Z" fill="#102051"/>
<path d="M104.845 117.604C104.79 117.603 104.737 117.582 104.697 117.546C104.66 117.506 104.64 117.454 104.64 117.4C104.64 117.347 104.66 117.295 104.697 117.255L128.848 93.1037C128.868 93.0838 128.891 93.068 128.916 93.0572C128.942 93.0464 128.969 93.0408 128.997 93.0408C129.024 93.0408 129.052 93.0464 129.077 93.0572C129.103 93.068 129.126 93.0838 129.145 93.1037C129.182 93.1431 129.202 93.195 129.202 93.2489C129.202 93.3027 129.182 93.3546 129.145 93.394L104.994 117.546C104.953 117.582 104.9 117.603 104.845 117.604Z" fill="#80AACF"/>
<path d="M97.1694 130.15C97.1135 130.148 97.0605 130.125 97.021 130.086C96.9843 130.046 96.9639 129.995 96.9639 129.941C96.9639 129.887 96.9843 129.835 97.021 129.796L136.532 90.2912C136.55 90.2715 136.573 90.2558 136.598 90.245C136.623 90.2343 136.65 90.2288 136.677 90.2288C136.704 90.2288 136.731 90.2343 136.756 90.245C136.781 90.2558 136.803 90.2715 136.822 90.2912C136.859 90.3306 136.879 90.3825 136.879 90.4363C136.879 90.4902 136.859 90.5421 136.822 90.5815L97.3177 130.086C97.2773 130.124 97.2248 130.147 97.1694 130.15Z" fill="#80AACF"/>
<path d="M166.102 154.308C166.047 154.305 165.994 154.282 165.954 154.244C165.917 154.204 165.896 154.153 165.896 154.099C165.896 154.045 165.917 153.993 165.954 153.954L194.459 125.448C194.5 125.411 194.553 125.39 194.608 125.39C194.663 125.39 194.716 125.411 194.756 125.448C194.793 125.487 194.813 125.539 194.813 125.593C194.813 125.647 194.793 125.699 194.756 125.738L166.25 154.244C166.21 154.282 166.157 154.305 166.102 154.308Z" fill="#80AACF"/>
<path d="M175.177 151.115C175.151 151.116 175.124 151.11 175.099 151.099C175.075 151.088 175.053 151.071 175.036 151.051C175.016 151.032 175 151.01 174.989 150.985C174.979 150.96 174.973 150.933 174.973 150.906C174.973 150.878 174.979 150.852 174.989 150.827C175 150.802 175.016 150.779 175.036 150.76L190.588 135.208C190.606 135.185 190.629 135.167 190.655 135.154C190.681 135.14 190.709 135.133 190.738 135.131C190.767 135.13 190.796 135.134 190.823 135.145C190.85 135.155 190.874 135.171 190.895 135.191C190.915 135.212 190.931 135.236 190.942 135.263C190.952 135.29 190.957 135.319 190.955 135.348C190.954 135.377 190.946 135.406 190.933 135.431C190.92 135.457 190.901 135.48 190.879 135.498L175.326 151.051C175.307 151.072 175.284 151.088 175.259 151.099C175.233 151.11 175.205 151.116 175.177 151.115Z" fill="#80AACF"/>
<path d="M177.739 153.412C177.683 153.41 177.63 153.387 177.59 153.347C177.554 153.308 177.533 153.256 177.533 153.202C177.533 153.148 177.554 153.096 177.59 153.057L196.807 134.047C196.847 134.008 196.9 133.986 196.955 133.986C197.011 133.986 197.064 134.008 197.104 134.047C197.142 134.085 197.163 134.137 197.163 134.192C197.163 134.246 197.142 134.298 197.104 134.337L177.894 153.341C177.852 153.383 177.797 153.408 177.739 153.412Z" fill="#80AACF"/>
<path d="M193.485 160.32H160.516V160.559H193.485V160.32Z" fill="#102051"/>
<path d="M126.739 174.131H126.507V172.048L129.326 160.411L129.552 160.469L126.739 172.08V174.131Z" fill="#102051"/>
<path d="M154.052 178.157C151.472 178.157 149.498 177.331 148.201 175.705C145.944 172.886 145.705 167.777 147.498 160.533V160.411L147.73 160.469V160.591C145.95 167.758 146.176 172.796 148.375 175.564C149.666 177.183 151.665 177.976 154.304 177.918C159.419 177.806 164.438 176.514 168.973 174.144C170.798 173.274 172.121 172.641 173.166 172.816L173.127 173.048C172.146 172.886 170.863 173.506 169.069 174.338C164.507 176.721 159.456 178.019 154.31 178.131L154.052 178.157Z" fill="white"/>
<path d="M128.139 178.26C127.592 178.282 127.048 178.177 126.549 177.953C126.049 177.73 125.609 177.393 125.262 176.97C124.707 176.163 124.468 174.635 126.552 171.958L126.739 172.099C125.184 174.131 124.746 175.77 125.481 176.834C126.217 177.899 128.158 178.124 128.945 177.905C131.842 177.034 137.383 165.12 137.686 160.243H137.925C137.602 165.3 132.048 177.202 129.016 178.112C128.733 178.206 128.437 178.256 128.139 178.26Z" fill="white"/>
<path d="M148.639 160.269H146.427V161.424H148.639V160.269Z" fill="white"/>
<path d="M136.673 161.43H138.886V160.275H136.673V161.43Z" fill="white"/>
<path d="M236.222 149.425H231.061V150.509H236.222V149.425Z" fill="#DADFF2"/>
<path d="M272.616 144.31L272.377 143.432C272.377 143.355 270.268 135.601 269.242 131.041L269.474 130.989C270.3 134.634 271.797 140.31 272.377 142.484V140.117H272.616V144.31Z" fill="#102051"/>
<path d="M267.63 154.012L265.869 153.231V153.154C265.704 149.998 265.741 146.835 265.978 143.684H266.223C265.983 146.798 265.944 149.925 266.107 153.044L267.733 153.767L267.63 154.012Z" fill="#102051"/>
<path d="M266.072 153.07L265.878 153.209L267.498 155.484L267.693 155.346L266.072 153.07Z" fill="#102051"/>
<path d="M202.597 293.352C204.076 291.874 204.076 289.476 202.597 287.997C201.118 286.519 198.721 286.519 197.242 287.997C195.763 289.476 195.763 291.874 197.242 293.352C198.721 294.831 201.118 294.831 202.597 293.352Z" fill="#0D172B"/>
<defs>
<linearGradient id="paint0_linear_24_686" x1="248.724" y1="77.9642" x2="271.86" y2="72.4259" gradientUnits="userSpaceOnUse">
<stop stop-color="#C45E59"/>
<stop offset="1" stop-color="#F2A981"/>
</linearGradient>
<linearGradient id="paint1_linear_24_686" x1="259.441" y1="85.6365" x2="240.814" y2="68.9457" gradientUnits="userSpaceOnUse">
<stop stop-color="#C45E59"/>
<stop offset="1" stop-color="#F2A981"/>
</linearGradient>
<linearGradient id="paint2_linear_24_686" x1="245.34" y1="128.934" x2="252.848" y2="79.7554" gradientUnits="userSpaceOnUse">
<stop stop-color="#102051"/>
<stop offset="1" stop-color="#F2A981"/>
</linearGradient>
</defs>
</svg>
