<svg width="25" height="25" viewBox="0 0 25 25" fill="none" xmlns="http://www.w3.org/2000/svg">
<path d="M14.1061 20.9465C14.3296 21.718 14.5301 22.4314 14.753 23.1388C14.773 23.2035 14.9159 23.2647 15.0041 23.2676C15.4052 23.2817 15.8074 23.2712 16.2091 23.2764C16.5284 23.2812 16.686 23.417 16.6831 23.6705C16.6802 23.9239 16.5161 24.0568 16.2009 24.0568C13.7411 24.0568 11.2812 24.0568 8.82103 24.0568C8.48347 24.0568 8.32234 23.9228 8.32587 23.6558C8.32881 23.4052 8.48465 23.28 8.81397 23.2759C9.19622 23.2717 9.57848 23.2676 9.96073 23.2759C10.1419 23.2812 10.2424 23.24 10.2948 23.0406C10.4618 22.4167 10.6523 21.7992 10.8317 21.1788C10.8485 21.1011 10.861 21.0226 10.8693 20.9435H10.4747C7.76013 20.9435 5.04496 20.9471 2.33037 20.9353C2.07776 20.933 1.82905 20.8727 1.60351 20.7589C1.16303 20.5301 1.00072 20.1226 1.00131 19.6321C1.00405 15.7316 1.00405 11.8306 1.00131 7.92928C1.00131 7.67406 0.998366 7.41942 1.00131 7.16478C1.0113 6.42027 1.50882 5.9151 2.25686 5.89452C2.57031 5.8857 2.88376 5.88688 3.19779 5.89452C3.51183 5.90217 3.67767 6.04801 3.67943 6.29206C3.6812 6.53612 3.50712 6.68549 3.20308 6.6902C2.90904 6.69431 2.615 6.6902 2.32096 6.69372C1.94283 6.70019 1.79639 6.83898 1.79639 7.20594C1.79639 11.3519 1.79639 15.4975 1.79639 19.6427C1.79639 19.9914 1.93989 20.1361 2.29156 20.1626C2.35978 20.1678 2.42858 20.1626 2.4968 20.1626H22.5157C22.6232 20.1672 22.7309 20.1615 22.8374 20.1455C23.0655 20.1002 23.2008 19.9632 23.2055 19.7197C23.2055 19.6609 23.2055 19.6021 23.2055 19.5433C23.2055 15.4659 23.2055 11.3886 23.2055 7.31121C23.2055 6.80546 23.0879 6.69137 22.5827 6.68961C22.3081 6.68961 22.0335 6.69372 21.7594 6.68961C21.5124 6.6849 21.3442 6.57199 21.3248 6.30912C21.3072 6.07389 21.4789 5.90393 21.7571 5.89746C22.1099 5.88805 22.4628 5.87864 22.8156 5.89746C23.5042 5.93922 23.9724 6.4332 24 7.12008C24 7.1883 24 7.25711 24 7.32591C24 11.4033 24 15.4806 24 19.558C24 20.4601 23.5295 20.94 22.628 20.9406C19.9326 20.9429 17.2375 20.9429 14.5425 20.9406L14.1061 20.9465ZM13.9538 23.2729C13.728 22.4949 13.5233 21.7739 13.3016 21.0588C13.284 21 13.1475 20.9541 13.0664 20.9518C12.6953 20.94 12.3231 20.9518 11.949 20.9441C11.7879 20.9406 11.7056 20.9888 11.6603 21.1558C11.5233 21.6657 11.3662 22.1691 11.2175 22.676C11.1645 22.8589 11.1216 23.0447 11.0687 23.25C11.1828 23.26 11.2586 23.2717 11.3345 23.2717C12.1849 23.2735 13.0346 23.2729 13.9532 23.2729H13.9538Z" fill="black" fill-opacity="0.8" stroke="black" stroke-opacity="0.8" stroke-width="0.5"/>
<path d="M13.4304 13.3061C13.1158 13.2167 12.9153 13.0821 12.8535 12.7957C12.7918 12.5093 12.6636 12.2964 12.3436 12.2823C12.0237 12.2682 11.8785 12.4622 11.785 12.7433C11.6779 13.0638 11.4051 13.2291 11.0916 13.1138C10.67 12.9605 10.2626 12.7704 9.87428 12.5457C9.56142 12.3634 9.53731 12.0218 9.77078 11.7036C9.91839 11.5025 9.97308 11.3031 9.84605 11.0779C9.69962 10.8179 9.39617 10.7491 9.10448 10.9044C8.63402 11.1537 8.36644 11.0744 8.15061 10.5804C8.00444 10.2496 7.88641 9.90711 7.79777 9.55651C7.69897 9.15427 7.90068 8.89198 8.30469 8.82494C8.63225 8.77084 8.81338 8.59853 8.82985 8.32684C8.84632 8.05514 8.67989 7.86637 8.35939 7.77404C7.95714 7.65642 7.78189 7.38297 7.92656 6.99836C8.07103 6.6148 8.2481 6.24433 8.45583 5.891C8.65166 5.55874 8.95923 5.50522 9.28679 5.71458C9.53143 5.86983 9.76843 5.90335 9.98661 5.70399C10.2048 5.50463 10.1918 5.26411 10.066 5.00594C9.89898 4.66309 9.99543 4.36258 10.3453 4.20203C10.6674 4.05399 11.0007 3.93168 11.3421 3.83625C11.8091 3.70452 12.0367 3.84624 12.1654 4.31612C12.2301 4.54665 12.3601 4.73131 12.5959 4.73307C12.76 4.73307 12.9341 4.63427 13.0864 4.54841C13.1452 4.51372 13.1693 4.39904 13.1987 4.3173C13.3293 3.95739 13.6051 3.78802 13.9573 3.92269C14.3418 4.06587 14.7141 4.23992 15.0706 4.44315C15.4234 4.64662 15.4581 4.96771 15.2382 5.32233C15.16 5.44877 15.087 5.6099 15.0947 5.75045C15.1164 6.12624 15.5116 6.31148 15.8645 6.13447C16.3885 5.87218 16.6472 5.95804 16.8777 6.49496C17.0042 6.79193 17.1088 7.09777 17.1906 7.41002C17.3082 7.86108 17.1265 8.10572 16.6719 8.21745C16.522 8.2545 16.3491 8.33507 16.2603 8.45269C16.0427 8.74143 16.2132 9.12369 16.579 9.23542C17.0871 9.39068 17.2259 9.64708 17.0342 10.1358C16.9005 10.4716 16.741 10.7966 16.5572 11.1079C16.3549 11.4513 16.0338 11.5195 15.7045 11.3119C15.4599 11.1561 15.2299 11.1226 15.0076 11.3243C14.7854 11.526 14.8053 11.7683 14.9294 12.0247C15.0647 12.2993 15.0341 12.6057 14.7936 12.7304C14.3566 12.9527 13.8874 13.1168 13.4304 13.3061ZM13.925 4.7413C13.331 5.83102 11.942 5.81749 11.4033 4.64192C11.3233 4.66485 11.2392 4.68367 11.1581 4.71249C11.0769 4.7413 10.9816 4.78423 10.8964 4.82011C11.2304 6.06096 10.1601 6.97131 9.00274 6.50143L8.74634 7.03953C9.32854 7.32827 9.65316 7.74993 9.61317 8.38329C9.57318 9.01666 9.18858 9.38656 8.60814 9.60062L8.81809 10.1481C9.42793 9.91877 9.95367 10.0064 10.3765 10.4692C10.7993 10.932 10.7811 11.4778 10.5359 12.0447L11.0787 12.2887C11.6668 11.1955 13.0564 11.2078 13.591 12.367C14.0726 12.2976 14.0873 12.2793 14.045 11.8042C13.9656 10.9073 14.8406 10.2016 15.7204 10.4475C15.811 10.4727 15.9009 10.5004 16.0062 10.531L16.2526 9.97993C15.6645 9.70236 15.3499 9.27424 15.3875 8.64381C15.4252 8.01339 15.8121 7.64407 16.3908 7.42707L16.192 6.8978C14.7877 7.23065 14.1114 6.48614 14.4401 4.97536L13.925 4.7413Z" fill="black" fill-opacity="0.8"/>
<path d="M13.4335 13.359L13.4167 13.3542C13.2565 13.3087 13.1201 13.2503 13.0152 13.1632C12.909 13.0751 12.8378 12.9598 12.8046 12.8062C12.7745 12.6664 12.7294 12.5513 12.6578 12.4699C12.588 12.3903 12.4892 12.3387 12.3414 12.3322C12.1932 12.3257 12.0905 12.367 12.0135 12.4387C11.9345 12.5122 11.8781 12.6216 11.8324 12.7591L11.8324 12.7592C11.7757 12.9289 11.6737 13.0615 11.5399 13.1357C11.4054 13.2103 11.2436 13.223 11.0745 13.1608C11.0745 13.1608 11.0744 13.1608 11.0744 13.1607L11.0916 13.1138C10.67 12.9605 10.2626 12.7704 9.87428 12.5457L13.4335 13.359ZM13.4335 13.359L13.4496 13.3523M13.4335 13.359L13.4496 13.3523M13.4496 13.3523C13.5841 13.2966 13.7205 13.2427 13.8572 13.1887C14.1813 13.0608 14.5074 12.9321 14.8163 12.775L14.8166 12.7748C14.9527 12.7043 15.0287 12.5819 15.0518 12.4419C15.0746 12.3031 15.0456 12.1473 14.9743 12.0026L14.9294 12.0247L14.9744 12.0029C14.9143 11.8786 14.882 11.7629 14.8886 11.6571C14.895 11.5533 14.939 11.4541 15.0412 11.3613C15.1443 11.2678 15.2453 11.2317 15.3466 11.234C15.4497 11.2364 15.5593 11.2787 15.6777 11.3541L15.6779 11.3542C15.8507 11.4632 16.0269 11.503 16.1898 11.4653C16.353 11.4274 16.494 11.3137 16.6003 11.1333M13.4496 13.3523L9.31364 5.6724C9.43175 5.74735 9.54321 5.78972 9.64784 5.79228C9.7507 5.7948 9.85227 5.75901 9.95288 5.66708C10.0534 5.57526 10.0981 5.47691 10.1054 5.37349C10.1129 5.26826 10.0819 5.15269 10.0211 5.02785L10.021 5.02784C9.93346 4.84804 9.91216 4.6733 9.96448 4.51952C10.0169 4.36542 10.1403 4.2411 10.3245 4.1566C10.6489 4.00746 10.9847 3.88424 11.3287 3.78809L11.3421 3.83625M11.3421 3.83625L11.3286 3.78812C11.5669 3.72089 11.7571 3.71946 11.9061 3.80754C12.0544 3.89526 12.1481 4.06389 12.2136 4.30278C12.2448 4.41368 12.2905 4.50909 12.3531 4.5763C12.4145 4.64216 12.493 4.68225 12.5961 4.68307C12.6685 4.68303 12.7459 4.6611 12.8259 4.62695C12.9053 4.59311 12.9837 4.54891 13.0597 4.50608L13.061 4.50535C13.0744 4.49743 13.0901 4.47516 13.1071 4.43215C13.1149 4.41218 13.1221 4.39046 13.1294 4.36773C13.1306 4.36405 13.1318 4.36032 13.133 4.35657C13.139 4.33775 13.1452 4.3183 13.1517 4.30037L13.1517 4.30025C13.2198 4.11257 13.3279 3.96862 13.4709 3.89063C13.6151 3.81201 13.7877 3.80436 13.975 3.87591C14.3619 4.02001 14.7366 4.19518 15.0953 4.39971L15.0955 4.39983C15.2817 4.50715 15.3901 4.64967 15.4185 4.81775C15.4465 4.98402 15.3943 5.16537 15.2807 5.34863C15.2035 5.47342 15.1379 5.62332 15.1446 5.7477C15.1545 5.9169 15.2475 6.04136 15.3774 6.10483C15.5081 6.1687 15.6787 6.17175 15.8421 6.08978L15.8421 6.08976C16.1061 5.95763 16.3182 5.90484 16.4977 5.96783C16.6777 6.03101 16.8074 6.20429 16.9237 6.47524L16.9237 6.47537C17.0512 6.77458 17.1566 7.08273 17.239 7.39735L17.239 7.3974C17.2998 7.63056 17.2859 7.82089 17.1875 7.96869C17.0899 8.11527 16.9165 8.20882 16.6839 8.26599C16.5383 8.30196 16.3788 8.3787 16.3002 8.48281C16.2026 8.61231 16.1924 8.7611 16.247 8.89107C16.3019 9.02196 16.4238 9.13573 16.5936 9.1876L16.579 9.23542L16.5936 9.1876C16.8515 9.26641 17.0298 9.37471 17.1135 9.53772C17.1976 9.70152 17.1784 9.90499 17.0807 10.154L17.0806 10.1543C16.946 10.4925 16.7854 10.8198 16.6003 11.1333M11.3421 3.83625C11.8091 3.70452 12.0367 3.84624 12.1654 4.31612L10.066 5.00594C9.89898 4.66309 9.99543 4.36258 10.3453 4.20203C10.6674 4.05399 11.0007 3.93168 11.3421 3.83625ZM16.6003 11.1333L16.5572 11.1079L16.6003 11.1333C16.6003 11.1333 16.6003 11.1333 16.6003 11.1333ZM16.3266 7.39825L16.1606 6.95635C15.4717 7.11056 14.9441 7.00739 14.6292 6.6616C14.3149 6.31642 14.2286 5.74621 14.3829 5.00426L13.9461 4.80582C13.6386 5.33877 13.1387 5.60541 12.642 5.59107C12.1434 5.57668 11.6559 5.27946 11.376 4.70139C11.362 4.70519 11.3481 4.70889 11.3343 4.71255C11.2802 4.72689 11.2276 4.74084 11.1748 4.75961C11.116 4.78047 11.05 4.80878 10.9844 4.83694C10.9747 4.84108 10.9651 4.84521 10.9555 4.84931C11.1078 5.4691 10.9192 6.00992 10.5417 6.33993C10.1655 6.66891 9.60713 6.78362 9.02786 6.56496L8.81246 7.017C9.08796 7.15998 9.30706 7.33571 9.45452 7.55421C9.61024 7.78495 9.68369 8.05988 9.66307 8.38644C9.64243 8.71334 9.53243 8.97484 9.35094 9.18213C9.17984 9.37756 8.94743 9.5223 8.67279 9.62956L8.84717 10.0843C9.14107 9.98075 9.41882 9.9494 9.67705 10C9.94944 10.0535 10.1958 10.1973 10.4134 10.4355C10.6323 10.6751 10.7382 10.9379 10.7566 11.2146C10.774 11.4757 10.7133 11.7464 10.6009 12.0191L11.0572 12.2243C11.3619 11.6896 11.8605 11.4217 12.356 11.4332C12.8547 11.4448 13.3427 11.739 13.6204 12.3122C13.7229 12.2971 13.7996 12.2844 13.8577 12.2684C13.9225 12.2505 13.956 12.2305 13.9755 12.2063C13.9949 12.1823 14.0069 12.1462 14.0097 12.0807C14.0124 12.015 14.0058 11.9282 13.9952 11.8086L13.9952 11.8086C13.9125 10.8754 14.8219 10.1445 15.7339 10.3993M16.3266 7.39825L15.7339 10.3993M16.3266 7.39825C16.0526 7.50682 15.8199 7.6521 15.6487 7.84745C15.4672 8.05456 15.3571 8.31522 15.3376 8.64083C15.3182 8.96556 15.3896 9.2413 15.5439 9.47198C15.6901 9.69067 15.9086 9.86556 16.1872 10.0038L15.9784 10.4707M16.3266 7.39825L15.9784 10.4707M15.7339 10.3993C15.7897 10.4149 15.8458 10.4315 15.9049 10.449C15.9289 10.4561 15.9533 10.4634 15.9784 10.4707M15.7339 10.3993L15.9784 10.4707" stroke="black" stroke-opacity="0.8" stroke-width="0.1"/>
<path d="M19.3623 11.6183C19.4584 11.5821 19.5566 11.5519 19.6564 11.5278C19.8534 11.4948 20.0363 11.5642 20.0745 11.7565C20.1021 11.8935 20.0633 12.1353 19.9716 12.1899C19.4576 12.4952 18.9283 12.768 18.3861 13.0244C18.1656 13.1279 17.9339 12.958 17.9098 12.6927C17.858 12.1376 17.8239 11.5801 17.7951 11.0226C17.7833 10.7874 17.9292 10.6539 18.152 10.6362C18.3749 10.6186 18.5208 10.738 18.5637 10.9673C18.5772 11.042 18.5937 11.1167 18.609 11.1908L18.6931 11.2084C18.8236 10.7685 18.9871 10.3357 19.0794 9.88819C19.9839 5.40172 16.3743 1.40217 11.8131 1.83147C10.7552 1.93116 9.73803 2.28921 8.85095 2.87414C8.7445 2.94354 8.63924 3.05939 8.52809 3.06586C8.37343 3.07527 8.14995 3.04939 8.07409 2.94824C7.99823 2.84709 8.04763 2.63421 8.07409 2.47778C8.08409 2.41897 8.18347 2.3731 8.24699 2.3284C12.7164 -0.811365 19.0883 1.91969 19.9169 7.32298C20.1353 8.69311 19.9725 10.0969 19.4464 11.3807C19.4205 11.4413 19.3988 11.506 19.3623 11.6183Z" fill="black" fill-opacity="0.8"/>
<path d="M18.5637 10.9673C18.5208 10.738 18.3749 10.6186 18.152 10.6362C17.9292 10.6539 17.7833 10.7874 17.7951 11.0226L18.5637 10.9673ZM18.5637 10.9673C18.5737 11.0223 18.5852 11.0773 18.5967 11.1321C18.5988 11.1418 18.6008 11.1515 18.6028 11.1611L18.5637 10.9673ZM19.6398 11.4289L19.6399 11.4291C19.7532 11.4102 19.8707 11.4191 19.9694 11.4681C20.0715 11.5187 20.1472 11.6096 20.1726 11.737L20.0745 11.7565M19.6398 11.4289L8.5339 3.16569C8.53394 3.16569 8.53399 3.16568 8.53403 3.16568M19.6398 11.4289L19.6328 11.4306C19.5957 11.4395 19.5589 11.4493 19.5222 11.4599C19.5276 11.446 19.5329 11.4329 19.5384 11.42L19.5389 11.4187C20.072 10.118 20.2369 8.69569 20.0157 7.30753C19.1757 1.83147 12.7199 -0.935996 8.1895 2.24658L8.18944 2.24662C8.17677 2.25554 8.16194 2.2648 8.14365 2.27623L8.14158 2.27753C8.12346 2.28886 8.10217 2.30221 8.0822 2.31653C8.06248 2.33067 8.04029 2.34836 8.02143 2.36972C8.00272 2.39091 7.98224 2.42138 7.9755 2.46102L7.97549 2.4611C7.97291 2.47634 7.96998 2.49278 7.96689 2.51008C7.95517 2.57575 7.94123 2.65392 7.93598 2.72653C7.92967 2.81376 7.93236 2.92594 7.99409 3.00824C8.05494 3.08938 8.16116 3.12735 8.25082 3.14634C8.34587 3.16647 8.44956 3.17081 8.53403 3.16568M19.6398 11.4289L8.53403 3.16568M20.0745 11.7565L20.1725 11.7368C20.1896 11.8216 20.1855 11.9303 20.1657 12.0247C20.1556 12.0725 20.1407 12.1207 20.1198 12.1628C20.0998 12.2033 20.0693 12.2481 20.0228 12.2758L20.0226 12.2759C19.5053 12.5831 18.9731 12.8575 18.4289 13.1148L18.4286 13.115C18.2837 13.183 18.1325 13.1606 18.0165 13.0785C17.9021 12.9974 17.8247 12.8611 17.8102 12.7019M20.0745 11.7565C20.0363 11.5642 19.8534 11.4948 19.6564 11.5278L17.9098 12.6927M20.0745 11.7565C20.1021 11.8935 20.0633 12.1353 19.9716 12.1899C19.4576 12.4952 18.9283 12.768 18.3861 13.0244C18.1656 13.1279 17.9339 12.958 17.9098 12.6927M17.8102 12.7019C17.8102 12.7019 17.8102 12.7018 17.8102 12.7018L17.9098 12.6927M17.8102 12.7019C17.8102 12.702 17.8102 12.702 17.8102 12.702L17.9098 12.6927M17.8102 12.7019C17.7582 12.1448 17.7241 11.5858 17.6952 11.0278L17.6952 11.0276C17.6882 10.8874 17.7283 10.7665 17.8137 10.6783C17.8978 10.5914 18.0153 10.5467 18.1442 10.5365C18.2755 10.5261 18.3946 10.5558 18.4882 10.6314C18.5811 10.7064 18.6374 10.8175 18.662 10.9489L18.6621 10.9495C18.6628 10.9536 18.6636 10.9576 18.6643 10.9617C18.6863 10.8922 18.7085 10.8232 18.7306 10.7546C18.826 10.4586 18.9195 10.1685 18.9815 9.86824C19.8725 5.44781 16.3171 1.508 11.8225 1.93103M11.8225 1.93103L11.8131 1.83147M11.8225 1.93103L11.8131 1.83147M11.8225 1.93103C10.7809 2.02919 9.7794 2.38171 8.906 2.95763L8.90556 2.95791L8.90556 2.95791C8.88281 2.97274 8.85917 2.99069 8.83272 3.01132C8.8284 3.01469 8.82398 3.01815 8.81948 3.02167C8.79751 3.03887 8.77356 3.05762 8.74963 3.07481C8.69417 3.11465 8.62006 3.16063 8.53403 3.16568M11.8131 1.83147C10.7552 1.93116 9.73803 2.28921 8.85095 2.87414L18.7059 11.1656C18.7436 11.0406 18.7837 10.9161 18.8238 10.7917C18.9201 10.4928 19.0164 10.1939 19.0794 9.88819C19.9839 5.40172 16.3743 1.40217 11.8131 1.83147Z" stroke="black" stroke-opacity="0.8" stroke-width="0.2"/>
<path d="M5.63779 5.41525C5.48607 5.45994 5.36551 5.53933 5.28494 5.50934C5.1438 5.45524 4.9615 5.3582 4.92092 5.23706C4.88034 5.11591 4.95385 4.87539 5.05383 4.8154C5.54076 4.52548 6.0471 4.26437 6.56049 4.02267C6.8169 3.90152 7.06095 4.05972 7.08977 4.34847C7.14152 4.89421 7.17445 5.4423 7.20738 5.9898C7.22091 6.22033 7.08977 6.37323 6.86924 6.39558C6.634 6.41969 6.47757 6.29972 6.43758 6.05273C6.42582 5.97922 6.40171 5.90747 6.36878 5.77692C6.03219 6.49753 5.83752 7.27621 5.7954 8.07043C5.61486 11.6289 7.97718 14.5881 11.4916 15.1586C13.1823 15.4332 14.7631 15.0668 16.2003 14.1224C16.5849 13.8695 16.8037 13.8554 16.9648 14.0936C17.126 14.3317 17.0236 14.5329 16.6337 14.7875C11.9844 17.8226 5.8054 15.0063 5.05265 9.50476C4.87758 8.2262 5.03976 6.92408 5.52312 5.72752C5.55781 5.63636 5.58957 5.5458 5.63779 5.41525Z" fill="black" fill-opacity="0.8"/>
<path d="M5.24915 5.60272L5.24915 5.60271C5.17428 5.57401 5.08591 5.53303 5.00922 5.48118C4.93574 5.43151 4.85709 5.36135 4.8261 5.26882C4.79608 5.17919 4.81079 5.06465 4.8392 4.97353C4.85413 4.92564 4.87463 4.87823 4.90011 4.83699C4.92481 4.79701 4.95838 4.75605 5.00238 4.72965L5.00267 4.72948L5.00267 4.72948C5.49305 4.4375 6.00238 4.17489 6.5179 3.93219C6.67405 3.85846 6.83548 3.86695 6.96353 3.94709C7.09027 4.02641 7.17227 4.16819 7.18927 4.33854L7.18932 4.33902C7.24114 4.88547 7.27413 5.43397 7.30697 5.97989L7.3072 5.9838L7.30721 5.98394C7.31517 6.11959 7.28077 6.24208 7.20265 6.33508C7.12446 6.42816 7.01084 6.48172 6.87943 6.49506L5.24915 5.60272ZM5.24915 5.60272L5.25006 5.60306M5.24915 5.60272L5.25006 5.60306M5.25006 5.60306C5.29173 5.61857 5.33313 5.61787 5.36823 5.61237C5.403 5.60691 5.43764 5.59572 5.46909 5.58419C5.46932 5.58411 5.46954 5.58403 5.46977 5.58395M5.25006 5.60306L5.46977 5.58395M5.46977 5.58395C5.45623 5.62105 5.44341 5.6558 5.43001 5.69101C4.94043 6.90347 4.77619 8.22283 4.95358 9.51833C4.95358 9.51833 4.95357 9.51832 4.95357 9.51832L5.46977 5.58395ZM16.1454 14.0388C14.7279 14.9703 13.1723 15.3303 11.5076 15.0599L11.5076 15.0599C8.04419 14.4977 5.71734 11.5838 5.89526 8.07563C5.93155 7.39168 6.08282 6.71945 6.34205 6.087C6.36685 6.21984 6.42431 6.33039 6.51835 6.4044C6.61701 6.48204 6.74271 6.50906 6.87938 6.49506C6.87936 6.49506 6.87934 6.49507 6.87932 6.49507L16.1454 14.0388Z" stroke="black" stroke-opacity="0.8" stroke-width="0.2"/>
<path d="M12.4683 19.1299H3.12313C2.73852 19.1299 2.55798 18.9976 2.56386 18.7282C2.56974 18.4742 2.74852 18.3507 3.11431 18.3507H15.0165C17.31 18.3507 19.6035 18.3477 21.8929 18.3583C22.0505 18.3583 22.2487 18.4201 22.3546 18.5265C22.548 18.72 22.4069 19.0617 22.1358 19.1146C22.0294 19.1304 21.9216 19.1359 21.8141 19.1311C18.6985 19.1311 15.5832 19.1311 12.4683 19.1311V19.1299Z" fill="black" fill-opacity="0.8"/>
<path d="M12.5183 10.2387C12.2879 10.2418 12.0592 10.1987 11.8456 10.112C11.6321 10.0253 11.4381 9.8968 11.275 9.73398C11.1119 9.57116 10.983 9.37735 10.896 9.16397C10.8089 8.95058 10.7655 8.72193 10.7682 8.4915C10.7682 7.57879 11.5468 6.79547 12.4736 6.78135C12.7015 6.77793 12.9277 6.81948 13.1395 6.90361C13.3513 6.98774 13.5444 7.1128 13.7078 7.27164C13.8711 7.43049 14.0016 7.61999 14.0916 7.82931C14.1817 8.03863 14.2296 8.26365 14.2326 8.4915C14.237 8.71939 14.196 8.94589 14.1118 9.15772C14.0277 9.36956 13.9021 9.56248 13.7424 9.72518C13.5828 9.88788 13.3923 10.0171 13.1821 10.1053C12.9719 10.1935 12.7463 10.2388 12.5183 10.2387ZM12.5277 7.57762C12.3421 7.57345 12.1594 7.62449 12.0027 7.72427C11.8461 7.82404 11.7226 7.96806 11.6479 8.13807C11.5732 8.30809 11.5507 8.49645 11.5831 8.6793C11.6156 8.86214 11.7016 9.03123 11.8302 9.16516C11.9589 9.29908 12.1244 9.39181 12.3058 9.43159C12.4872 9.47137 12.6763 9.45641 12.8492 9.38861C13.022 9.32081 13.1709 9.20322 13.2769 9.05074C13.3829 8.89826 13.4412 8.71774 13.4445 8.53207C13.4482 8.28391 13.3536 8.04437 13.1815 7.86561C13.0093 7.68684 12.7735 7.58333 12.5254 7.57762H12.5277Z" fill="black" fill-opacity="0.8"/>
</svg>
