<svg width="21" height="17" viewBox="0 0 21 17" fill="none" xmlns="http://www.w3.org/2000/svg">
<path d="M3.28025 14.7526C3.60239 14.5963 3.8912 14.4521 4.18332 14.3134C4.64675 14.0937 5.15558 14.2639 5.36716 14.7017C5.57874 15.1396 5.40083 15.6432 4.93997 15.8731C4.42748 16.1294 3.91134 16.3783 3.39593 16.6279C2.91566 16.8608 2.487 16.7407 2.19086 16.2934C-0.795816 11.7875 0.243425 5.67106 4.60978 2.4706C7.78937 0.139905 11.2534 -0.197968 14.896 1.29189C15.3994 1.49762 15.6025 1.99875 15.4008 2.45816C15.2043 2.90585 14.6987 3.09913 14.2335 2.89267C13.5648 2.59414 12.8606 2.38242 12.1382 2.26268C11.9764 2.23596 11.8127 2.21839 11.6202 2.1924V2.40325C11.6202 2.70854 11.6275 3.01384 11.6176 3.3184C11.6015 3.80965 11.2237 4.18047 10.7519 4.1812C10.2731 4.1812 9.88945 3.8005 9.88067 3.30485C9.87408 2.94612 9.88067 2.58701 9.88067 2.20045C8.91127 2.29222 7.9663 2.55769 7.09093 2.98419C5.60949 3.698 4.42822 4.75225 3.52698 6.15865L4.00542 6.39037C4.19211 6.48005 4.38099 6.56607 4.56549 6.66015C5.0022 6.88235 5.1768 7.378 4.97437 7.80958C4.77194 8.24116 4.26678 8.42675 3.81323 8.22066C3.52039 8.08705 3.22974 7.94319 2.93799 7.80482C2.88455 7.7792 2.82817 7.7565 2.7524 7.72246C1.91412 10.1483 2.09239 12.4757 3.28025 14.7526Z" fill="black" fill-opacity="0.8"/>
<path d="M10.9404 13.1222C9.70092 13.124 8.78651 12.4801 8.43216 11.4856C8.08477 10.51 8.37066 9.40122 9.20674 8.7683C10.3679 7.88976 11.5546 7.04233 12.7458 6.20369C14.0867 5.25925 15.444 4.33898 16.7948 3.40919C17.092 3.20456 17.4076 3.17455 17.7268 3.34842C18.0317 3.51462 18.1898 3.7844 18.1723 4.12923C18.1662 4.2871 18.1187 4.44061 18.0346 4.57436C16.2849 7.12982 14.5666 9.70797 12.6902 12.173C12.2062 12.8052 11.5473 13.1061 10.9404 13.1222ZM13.8535 7.56067C13.7715 7.60899 13.7305 7.62949 13.6935 7.65548C12.8234 8.27229 11.9518 8.8869 11.085 9.50774C10.8075 9.70651 10.5326 9.9104 10.2731 10.13C10.0015 10.361 9.9524 10.726 10.1266 11.0269C10.2932 11.3179 10.6443 11.4764 10.9569 11.3501C11.1348 11.2748 11.2894 11.1535 11.4049 10.9987C12.2077 9.90235 12.9955 8.79465 13.7872 7.69025C13.8117 7.64829 13.8338 7.60503 13.8535 7.56067Z" fill="black" fill-opacity="0.8"/>
<path d="M18.2096 14.7552C18.5295 14.1856 18.7787 13.5791 18.9516 12.949C19.4885 10.9882 19.3504 9.07517 18.5372 7.20997C18.2967 6.65576 18.5643 6.09093 19.1229 5.96317C19.5333 5.86983 19.9326 6.07958 20.1175 6.49359C20.5718 7.5016 20.8549 8.5783 20.955 9.67941C21.1683 12.0666 20.6224 14.2665 19.3173 16.2791C19.0179 16.7411 18.5973 16.8615 18.102 16.6272C17.5783 16.3802 17.0557 16.131 16.5341 15.8794C16.0682 15.6546 15.8804 15.1604 16.0872 14.7167C16.2973 14.2658 16.8065 14.0926 17.2794 14.3141C17.5833 14.4565 17.8849 14.6014 18.2096 14.7552Z" fill="black" fill-opacity="0.8"/>
</svg>
