<svg width="25" height="17" viewBox="0 0 25 17" fill="none" xmlns="http://www.w3.org/2000/svg">
<path d="M7.80794 5.47429C7.80794 5.18732 7.82051 4.9327 7.80445 4.68019C7.78979 4.44807 7.85751 4.36156 8.10746 4.36367C9.45842 4.37563 10.8101 4.36719 12.161 4.36719H19.5477V5.48133H19.8919C20.5286 5.48133 21.1653 5.47148 21.8021 5.48766C21.9547 5.49491 22.1012 5.55027 22.221 5.64591C22.7655 6.09935 23.3008 6.56452 23.8267 7.0414C23.9235 7.13358 23.9821 7.2592 23.9908 7.39309C24.0029 8.61226 24.0029 9.83378 23.9908 11.0576C23.9875 11.1844 23.9417 11.3064 23.861 11.4037C22.4067 12.9933 20.9433 14.5745 19.4876 16.162C19.4327 16.2281 19.3635 16.2806 19.2853 16.3155C19.2071 16.3503 19.122 16.3667 19.0366 16.3632C14.9621 16.3571 10.888 16.3571 6.81445 16.3632C6.60988 16.3632 6.50237 16.2928 6.39974 16.1247C5.75742 15.0894 5.10393 14.0617 4.46022 13.0299C4.40203 12.9345 4.36999 12.8253 4.36737 12.7134C4.36225 10.6825 4.36225 8.65212 4.36737 6.62219C4.37559 6.50522 4.42226 6.39435 4.50002 6.30708C4.68992 6.08974 4.90984 5.89913 5.10114 5.68319C5.24078 5.52423 5.40135 5.4764 5.60801 5.48062C6.25242 5.49399 6.89753 5.49047 7.54194 5.49258C7.61734 5.48766 7.69484 5.48133 7.80794 5.47429ZM18.5884 5.36316H8.75815V6.4569C7.80375 6.4569 6.88915 6.4569 5.97455 6.4569C5.60662 6.4569 5.33293 6.71574 5.33293 7.07868C5.33293 8.83711 5.32944 10.5955 5.33782 12.354C5.34158 12.5091 5.38537 12.6606 5.46489 12.7936C5.95361 13.594 6.45769 14.3839 6.9492 15.185C6.98145 15.2504 7.0324 15.3046 7.09548 15.3406C7.15857 15.3766 7.2309 15.3927 7.30317 15.3869C8.969 15.3792 10.6348 15.3813 12.3007 15.3813C14.4029 15.3813 16.505 15.3855 18.6072 15.3756C18.7572 15.3743 18.9014 15.3178 19.0129 15.2167C20.3101 13.8278 21.5991 12.4313 22.88 11.0274C22.9584 10.938 23.0042 10.8244 23.0099 10.7053C23.0206 9.73836 23.0206 8.77122 23.0099 7.80385C23.0028 7.69502 22.9557 7.59273 22.8779 7.51688C22.5365 7.20318 22.1874 6.89721 21.8272 6.60601C21.7212 6.52191 21.5919 6.47301 21.4572 6.46604C20.6194 6.45409 19.7815 6.45971 18.9437 6.45901H18.5877L18.5884 5.36316Z" fill="black" fill-opacity="0.8"/>
<path d="M5.10114 5.68319L4.98886 5.58373C4.89889 5.68528 4.80187 5.78153 4.70076 5.88182L4.69442 5.88812C4.59241 5.98931 4.4864 6.09474 4.38754 6.20784C4.28793 6.31988 4.22826 6.46196 4.21773 6.61167L4.21739 6.61165L4.21737 6.62181C4.21225 8.65199 4.21225 10.6826 4.21733 12.7138L4.21741 12.7169C4.22065 12.8551 4.26022 12.9901 4.33217 13.108L4.33216 13.108L4.33296 13.1093C4.61482 13.5611 4.89786 14.011 5.18084 14.4608C5.54553 15.0405 5.91012 15.6201 6.272 16.2034C6.33006 16.2984 6.39819 16.3803 6.49252 16.4361C6.58797 16.4925 6.69489 16.5132 6.81445 16.5132L6.81467 16.5132C10.8872 16.5071 14.9602 16.5071 19.0336 16.5132C19.1411 16.5171 19.2481 16.4963 19.3464 16.4525C19.4445 16.4087 19.5314 16.3431 19.6005 16.2608C20.2469 15.556 20.8953 14.8517 21.5438 14.1474C22.3541 13.2674 23.1646 12.3871 23.9716 11.505L23.9718 11.5051L23.9764 11.4995C24.0787 11.3762 24.1365 11.2219 24.1408 11.0616L24.1408 11.0591C24.1529 9.83428 24.1529 8.61177 24.1408 7.3916L24.141 7.3916L24.1405 7.38337C24.1294 7.21205 24.0544 7.05107 23.9302 6.93279L23.9302 6.93276L23.9275 6.93028C23.4 6.45198 22.8631 5.98543 22.3169 5.53064L22.317 5.53062L22.3146 5.52872C22.1702 5.41342 21.9935 5.34658 21.8092 5.33782L21.8092 5.33779L21.8059 5.3377C21.3415 5.32591 20.8762 5.32788 20.4135 5.32985C20.2392 5.33059 20.0652 5.33133 19.8919 5.33133H19.6977V4.36719V4.21719H19.5477H12.161C11.7651 4.21719 11.3693 4.21791 10.9736 4.21863C10.0182 4.22038 9.06352 4.22213 8.10879 4.21368L8.10873 4.21368C7.9764 4.21256 7.83867 4.23216 7.74633 4.33255C7.65497 4.43187 7.6471 4.56853 7.65475 4.68964L7.65476 4.68971C7.66541 4.85727 7.66305 5.0224 7.66045 5.20433C7.65984 5.24657 7.65923 5.28971 7.65875 5.33399C7.64651 5.33486 7.63465 5.33572 7.62316 5.33654C7.592 5.33878 7.56353 5.34083 7.53726 5.34256C7.37714 5.34205 7.21724 5.34187 7.0575 5.3417C6.57439 5.34117 6.09281 5.34064 5.61112 5.33065L5.61107 5.33065C5.37326 5.3258 5.16491 5.38331 4.98845 5.5842L5.10114 5.68319ZM5.10114 5.68319C5.00792 5.78843 4.90789 5.88764 4.80785 5.98687C4.70262 6.09126 4.59737 6.19566 4.50002 6.30708C4.42226 6.39435 4.37559 6.50522 4.36737 6.62219L5.60801 5.48062C5.40135 5.4764 5.24078 5.52423 5.10114 5.68319ZM8.90815 5.51316V6.4569V6.6069H8.75815H8.75256H8.74697H8.74138H8.73579H8.7302H8.72461H8.71903H8.71344H8.70786H8.70228H8.69669H8.69111H8.68553H8.67995H8.67437H8.66879H8.66321H8.65764H8.65206H8.64649H8.64091H8.63534H8.62977H8.6242H8.61863H8.61306H8.60749H8.60192H8.59635H8.59079H8.58522H8.57966H8.5741H8.56853H8.56297H8.55741H8.55185H8.54629H8.54073H8.53517H8.52962H8.52406H8.51851H8.51295H8.5074H8.50185H8.49629H8.49074H8.48519H8.47964H8.4741H8.46855H8.463H8.45746H8.45191H8.44637H8.44082H8.43528H8.42974H8.4242H8.41866H8.41312H8.40758H8.40204H8.3965H8.39097H8.38543H8.3799H8.37436H8.36883H8.3633H8.35777H8.35223H8.3467H8.34118H8.33565H8.33012H8.32459H8.31907H8.31354H8.30802H8.30249H8.29697H8.29145H8.28593H8.2804H8.27488H8.26937H8.26385H8.25833H8.25281H8.2473H8.24178H8.23627H8.23075H8.22524H8.21973H8.21421H8.2087H8.20319H8.19768H8.19217H8.18667H8.18116H8.17565H8.17015H8.16464H8.15914H8.15363H8.14813H8.14263H8.13712H8.13162H8.12612H8.12062H8.11512H8.10963H8.10413H8.09863H8.09314H8.08764H8.08215H8.07665H8.07116H8.06567H8.06017H8.05468H8.04919H8.0437H8.03821H8.03273H8.02724H8.02175H8.01626H8.01078H8.00529H7.99981H7.99433H7.98884H7.98336H7.97788H7.9724H7.96692H7.96144H7.95596H7.95048H7.945H7.93952H7.93405H7.92857H7.9231H7.91762H7.91215H7.90667H7.9012H7.89573H7.89026H7.88479H7.87932H7.87385H7.86838H7.86291H7.85744H7.85198H7.84651H7.84104H7.83558H7.83011H7.82465H7.81919H7.81372H7.80826H7.8028H7.79734H7.79188H7.78642H7.78096H7.7755H7.77004H7.76459H7.75913H7.75367H7.74822H7.74276H7.73731H7.73186H7.7264H7.72095H7.7155H7.71005H7.7046H7.69914H7.69369H7.68825H7.6828H7.67735H7.6719H7.66645H7.66101H7.65556H7.65012H7.64467H7.63923H7.63378H7.62834H7.6229H7.61746H7.61202H7.60657H7.60113H7.59569H7.59025H7.58482H7.57938H7.57394H7.5685H7.56307H7.55763H7.55219H7.54676H7.54132H7.53589H7.53046H7.52502H7.51959H7.51416H7.50873H7.5033H7.49787H7.49244H7.48701H7.48158H7.47615H7.47072H7.46529H7.45987H7.45444H7.44901H7.44359H7.43816H7.43274H7.42732H7.42189H7.41647H7.41105H7.40562H7.4002H7.39478H7.38936H7.38394H7.37852H7.3731H7.36768H7.36226H7.35685H7.35143H7.34601H7.34059H7.33518H7.32976H7.32435H7.31893H7.31352H7.3081H7.30269H7.29728H7.29186H7.28645H7.28104H7.27563H7.27022H7.26481H7.2594H7.25399H7.24858H7.24317H7.23776H7.23235H7.22695H7.22154H7.21613H7.21073H7.20532H7.19992H7.19451H7.18911H7.1837H7.1783H7.17289H7.16749H7.16209H7.15669H7.15128H7.14588H7.14048H7.13508H7.12968H7.12428H7.11888H7.11348H7.10808H7.10269H7.09729H7.09189H7.08649H7.0811H7.0757H7.0703H7.06491H7.05951H7.05412H7.04872H7.04333H7.03793H7.03254H7.02715H7.02175H7.01636H7.01097H7.00558H7.00018H6.99479H6.9894H6.98401H6.97862H6.97323H6.96784H6.96245H6.95706H6.95168H6.94629H6.9409H6.93551H6.93012H6.92474H6.91935H6.91396H6.90858H6.90319H6.89781H6.89242H6.88704H6.88165H6.87627H6.87088H6.8655H6.86012H6.85473H6.84935H6.84397H6.83859H6.8332H6.82782H6.82244H6.81706H6.81168H6.8063H6.80092H6.79554H6.79016H6.78478H6.7794H6.77402H6.76864H6.76326H6.75789H6.75251H6.74713H6.74175H6.73638H6.731H6.72562H6.72025H6.71487H6.7095H6.70412H6.69874H6.69337H6.68799H6.68262H6.67725H6.67187H6.6665H6.66112H6.65575H6.65038H6.645H6.63963H6.63426H6.62889H6.62351H6.61814H6.61277H6.6074H6.60203H6.59666H6.59129H6.58592H6.58054H6.57517H6.5698H6.56443H6.55907H6.5537H6.54833H6.54296H6.53759H6.53222H6.52685H6.52148H6.51611H6.51075H6.50538H6.50001H6.49464H6.48928H6.48391H6.47854H6.47318H6.46781H6.46244H6.45708H6.45171H6.44634H6.44098H6.43561H6.43025H6.42488H6.41952H6.41415H6.40879H6.40342H6.39806H6.39269H6.38733H6.38196H6.3766H6.37124H6.36587H6.36051H6.35515H6.34978H6.34442H6.33906H6.33369H6.32833H6.32297H6.3176H6.31224H6.30688H6.30152H6.29615H6.29079H6.28543H6.28007H6.27471H6.26934H6.26398H6.25862H6.25326H6.2479H6.24254H6.23718H6.23182H6.22645H6.22109H6.21573H6.21037H6.20501H6.19965H6.19429H6.18893H6.18357H6.17821H6.17285H6.16749H6.16213H6.15677H6.15141H6.14605H6.14069H6.13533H6.12997H6.12461H6.11925H6.11389H6.10853H6.10317H6.09781H6.09245H6.08709H6.08173H6.07637H6.07101H6.06565H6.0603H6.05494H6.04958H6.04422H6.03886H6.0335H6.02814H6.02278H6.01742H6.01206H6.0067H6.00135H5.99599H5.99063H5.98527H5.97991H5.97455C5.68394 6.6069 5.48293 6.80399 5.48293 7.07868C5.48293 7.47845 5.48275 7.87816 5.48257 8.27784C5.48196 9.63607 5.48135 10.9938 5.48781 12.3517C5.49117 12.4803 5.52753 12.6058 5.59327 12.716C5.85276 13.141 6.11322 13.5576 6.37432 13.9753C6.60812 14.3493 6.84245 14.7242 7.07705 15.1066L7.0843 15.1184L7.08373 15.1187C7.1028 15.1574 7.13283 15.1892 7.16979 15.2103C7.20674 15.2314 7.24901 15.2408 7.29117 15.2374L7.30247 15.2365L7.30247 15.2369C8.67474 15.2305 10.047 15.2308 11.4189 15.2311C11.7129 15.2312 12.0068 15.2313 12.3007 15.2313C12.7859 15.2313 13.2711 15.2315 13.7562 15.2317C15.3732 15.2325 16.9897 15.2332 18.6063 15.2256M8.90815 5.51316L18.6072 15.3756M8.90815 5.51316H18.4383L18.4377 6.45891L18.4376 6.60901H18.5877L18.9436 6.60901M8.90815 5.51316L18.9437 6.60901M18.6063 15.2256C18.6063 15.2256 18.6064 15.2256 18.6065 15.2256L18.6072 15.3756M18.6063 15.2256C18.6061 15.2256 18.606 15.2256 18.6059 15.2256L18.6072 15.3756M18.6063 15.2256C18.7172 15.2246 18.8242 15.1834 18.9078 15.1094M18.6072 15.3756C18.7572 15.3743 18.9014 15.3178 19.0129 15.2167M18.9078 15.1094C18.9063 15.1111 18.9048 15.1127 18.9032 15.1143L19.0129 15.2167M18.9078 15.1094C18.9092 15.1082 18.9107 15.1069 18.9121 15.1056L19.0129 15.2167M18.9078 15.1094L19.0129 15.2167M18.9437 6.60901V6.45901L18.9436 6.60901M18.9437 6.60901L18.9436 6.60901M18.9437 6.60901L18.9436 6.60901M22.7681 10.9275C22.7678 10.9279 22.7675 10.9282 22.7672 10.9285L22.88 11.0274L22.7692 10.9263C22.7688 10.9267 22.7685 10.9271 22.7681 10.9275ZM22.8599 10.7006C22.8599 10.7016 22.8599 10.7026 22.8599 10.7036L23.0099 10.7053L22.8601 10.6981C22.86 10.6989 22.86 10.6998 22.8599 10.7006ZM22.8599 7.81001C22.86 7.81122 22.8601 7.81244 22.8602 7.81365L23.0099 7.80385L22.8599 7.80551C22.8599 7.80701 22.8599 7.80851 22.8599 7.81001ZM22.7746 7.62567C22.7752 7.62623 22.7758 7.62678 22.7764 7.62733L22.8779 7.51688L22.7732 7.62428C22.7737 7.62474 22.7742 7.62521 22.7746 7.62567ZM21.7335 6.72313C21.7336 6.72326 21.7338 6.72339 21.734 6.72352L21.8272 6.60601L21.7329 6.72267C21.7331 6.72282 21.7333 6.72298 21.7335 6.72313ZM21.452 6.61599C21.453 6.616 21.454 6.61601 21.455 6.61603L21.4572 6.46604L21.4494 6.61584C21.4503 6.61589 21.4512 6.61594 21.452 6.61599Z" stroke="black" stroke-opacity="0.8" stroke-width="0.3"/>
<path d="M2.49245 7.51573H3.49582V11.0144H2.49173V12.3918C2.49173 12.8021 2.25351 13.0382 1.83893 13.0382C1.41227 13.0382 0.985601 13.0382 0.558934 13.0382C0.27449 13.0382 0 12.7659 0 12.4864C0 10.3455 0 8.20433 0 6.06293C0 5.80693 0.265957 5.53885 0.521957 5.53671C1.00219 5.53245 1.48196 5.53245 1.96125 5.53671C2.22649 5.53671 2.49031 5.81333 2.49173 6.08498C2.49458 6.55289 2.49245 7.01796 2.49245 7.51573ZM1.02329 6.53938V12.0199H1.51467V10.0224H2.51449V8.5056H1.49262V6.53938H1.02329Z" fill="black" fill-opacity="0.8"/>
<path d="M14.5124 2.49173V3.49298H11.0279V2.48889H9.61777C9.46416 2.49137 9.31583 2.4329 9.20522 2.32629C9.09461 2.21968 9.03073 2.07359 9.02755 1.92C9.01973 1.44924 9.01973 0.978489 9.02328 0.507733C9.02328 0.283733 9.31626 0 9.54168 0C11.7006 0 13.8596 0 16.0185 0C16.2425 0 16.5241 0.289422 16.5255 0.517689C16.5255 0.988445 16.5298 1.4592 16.5255 1.92996C16.5195 2.07966 16.4562 2.22134 16.3488 2.32575C16.2413 2.43016 16.0979 2.48932 15.9481 2.49102L14.5124 2.49173ZM15.5157 1.01476H10.0338V1.50187H12.0007V2.54507C12.4459 2.54507 12.869 2.53796 13.2914 2.54862C13.4777 2.55289 13.5424 2.48889 13.5332 2.30329C13.5196 2.04231 13.5296 1.77991 13.5296 1.49333H15.5157V1.01476Z" fill="black" fill-opacity="0.8"/>
<path d="M12.9699 9.80054C12.731 9.80054 12.4928 9.80054 12.2545 9.80054C12.1512 9.80492 12.0493 9.77531 11.9644 9.71622C11.8795 9.65714 11.8163 9.57185 11.7845 9.47343C11.7056 9.26792 11.7632 9.08943 11.9132 8.93867C12.7286 8.12184 13.5443 7.30572 14.3601 6.49032C14.5486 6.30045 14.7612 6.26703 14.9895 6.39005C15.2988 6.55645 15.3272 6.91912 15.0513 7.2C14.6033 7.65583 14.1482 8.10454 13.6952 8.55538C13.6327 8.61796 13.5644 8.67556 13.499 8.73529L13.5118 8.81067C13.7066 8.81067 13.9015 8.81636 14.0956 8.81067C14.353 8.80143 14.5813 8.85049 14.6915 9.1136C14.8017 9.37672 14.6986 9.57796 14.4995 9.7536C14.3196 9.91005 14.144 10.0686 13.9626 10.2258L14.0124 10.3232C14.2094 10.3232 14.4064 10.3289 14.6033 10.3232C14.8593 10.314 15.0833 10.3573 15.1964 10.6247C15.3095 10.8921 15.185 11.0656 15.0108 11.2391C14.2243 12.0228 13.4392 12.8074 12.6556 13.5929C12.3982 13.8496 12.1244 13.8773 11.9047 13.6711C11.6849 13.4649 11.6913 13.1812 11.9644 12.9045C12.3911 12.466 12.8237 12.0325 13.2622 11.6039C13.3511 11.5309 13.4463 11.466 13.5466 11.4098L13.4819 11.3052C13.2686 11.3052 13.051 11.3003 12.8362 11.3052C12.5923 11.3131 12.3875 11.2398 12.2929 11.0052C12.1984 10.7705 12.2773 10.5714 12.4572 10.4043C12.6371 10.2372 12.8277 10.053 13.0126 9.87734L12.9699 9.80054Z" fill="black" fill-opacity="0.8"/>
</svg>
