<svg width="24" height="22" viewBox="0 0 24 22" fill="none" xmlns="http://www.w3.org/2000/svg">
<path d="M24 14.4128C23.5114 15.5898 23.0477 15.8966 21.7494 15.9037C21.5797 15.9162 21.4092 15.9162 21.2394 15.9037C21.1582 15.879 21.0724 15.8726 20.9884 15.8853C20.9045 15.8979 20.8243 15.929 20.7539 15.9766C20.6835 16.0241 20.6246 16.0867 20.5815 16.1598C20.5384 16.233 20.5121 16.3149 20.5047 16.3995C20.4937 16.5172 20.4565 16.6309 20.3958 16.7323C20.3351 16.8338 20.2525 16.9203 20.1539 16.9856C20.0554 17.051 19.9435 17.0934 19.8265 17.1099C19.7094 17.1263 19.5902 17.1163 19.4775 17.0807C19.195 17.0574 18.9111 17.0574 18.6286 17.0807C18.9496 16.3317 19.2207 15.6041 19.5738 14.9157C19.648 14.8106 19.7435 14.7223 19.8541 14.6566C19.9648 14.5908 20.088 14.5491 20.2158 14.5341C20.7765 14.502 21.3385 14.502 21.8992 14.5341C22.3451 14.5341 22.5626 14.3486 22.5555 13.8921C22.5555 13.2109 22.5555 12.5296 22.5555 11.852C22.5555 11.399 22.3629 11.1921 21.9171 11.1957C21.4712 11.1993 20.9291 11.1957 20.4334 11.1957C20.2454 11.2099 20.0588 11.1551 19.9084 11.0415C19.758 10.9279 19.6542 10.7633 19.6166 10.5787C19.3954 9.94025 19.1636 9.30539 18.9032 8.68123C18.8113 8.51776 18.7781 8.3277 18.8092 8.14273C18.8404 7.95777 18.934 7.78906 19.0745 7.66473C19.4918 7.2617 19.8841 6.8337 20.3049 6.4378C20.366 6.39793 20.4162 6.34346 20.4509 6.27932C20.4857 6.21518 20.5039 6.14338 20.5039 6.07044C20.5039 5.9975 20.4857 5.9257 20.4509 5.86156C20.4162 5.79741 20.366 5.74294 20.3049 5.70307C19.7735 5.17521 19.235 4.65091 18.7107 4.11592C18.6668 4.05758 18.61 4.01025 18.5447 3.97764C18.4794 3.94504 18.4074 3.92807 18.3344 3.92807C18.2614 3.92807 18.1894 3.94504 18.1241 3.97764C18.0588 4.01025 18.002 4.05758 17.9581 4.11592C17.6014 4.47258 17.2091 4.85778 16.8382 5.23584C16.7141 5.37709 16.543 5.46838 16.3566 5.49267C16.1702 5.51695 15.9813 5.47257 15.8252 5.36781C15.2082 5.05038 14.5769 4.75791 13.9385 4.48685C13.7671 4.435 13.6183 4.32687 13.516 4.17994C13.4138 4.03302 13.3641 3.8559 13.3749 3.67722C13.3749 3.13152 13.3749 2.58582 13.3749 2.04369C13.3749 1.60143 13.1895 1.42666 12.7615 1.43736C12.2336 1.43736 11.6915 1.43736 11.1779 1.43736C10.7606 1.43736 10.5965 1.62283 10.6108 2.02942C10.6108 2.52162 10.6108 3.01739 10.6108 3.50959C10.6441 3.73974 10.5891 3.97398 10.4568 4.16521C10.3244 4.35644 10.1246 4.49047 9.89745 4.54035C9.32437 4.75108 8.76967 5.00875 8.23897 5.31074C8.06386 5.44854 7.84123 5.51129 7.61993 5.48521C7.39862 5.45914 7.1967 5.34637 7.05841 5.17164C6.74812 4.81498 6.40571 4.52608 6.08827 4.19438C5.77084 3.86268 5.51048 3.83772 5.18235 4.19438C4.70442 4.70085 4.20152 5.18591 3.70218 5.67098C3.41329 5.94917 3.37762 6.19171 3.70218 6.48417C4.11592 6.8658 4.48686 7.28666 4.89346 7.679C5.04356 7.80881 5.14225 7.98805 5.17169 8.1843C5.20112 8.38055 5.15937 8.58085 5.05396 8.74899C4.79003 9.35176 4.57602 9.97592 4.35846 10.6001C4.32161 10.7847 4.21869 10.9496 4.06899 11.0639C3.9193 11.1781 3.73309 11.2339 3.54525 11.2207C3.03522 11.2207 2.52519 11.2207 2.0116 11.2207C1.93087 11.2093 1.8486 11.2168 1.77131 11.2428C1.69402 11.2688 1.62385 11.3124 1.56637 11.3702C1.5089 11.428 1.46569 11.4985 1.4402 11.5759C1.41471 11.6533 1.40765 11.7357 1.41954 11.8163C1.41954 12.5296 1.41954 13.243 1.41954 13.9563C1.40669 14.037 1.41314 14.1195 1.43835 14.1972C1.46356 14.2749 1.50681 14.3456 1.56457 14.4033C1.62233 14.4611 1.69295 14.5043 1.77066 14.5296C1.84836 14.5548 1.93092 14.5612 2.0116 14.5484C2.55729 14.5484 3.103 14.5484 3.64513 14.5484C3.83129 14.5284 4.01845 14.5757 4.17281 14.6816C4.32717 14.7876 4.43856 14.9453 4.48685 15.1262C4.74008 15.786 5.04326 16.4244 5.34643 17.1164C4.89235 17.139 4.43729 17.1331 3.98396 17.0985C3.88664 17.0559 3.80128 16.99 3.73536 16.9067C3.66944 16.8233 3.62499 16.7251 3.6059 16.6206C3.4561 15.9715 3.05662 15.8217 2.45029 15.8859C2.07683 15.9265 1.69919 15.9024 1.33395 15.8145C0.620615 15.6326 0.231832 15.0762 0 14.4057V11.3419C0.517164 10.0366 0.905933 9.77262 2.32189 9.77262C2.45625 9.79784 2.59414 9.79784 2.7285 9.77262C2.8965 9.71328 3.04386 9.60679 3.15293 9.46589C3.65583 8.70263 3.55952 8.03923 2.77129 7.52207C2.70378 7.47008 2.64271 7.41021 2.58939 7.34374C2.4179 7.17749 2.28154 6.97848 2.18843 6.75853C2.09531 6.53858 2.04734 6.30215 2.04734 6.0633C2.04734 5.82445 2.09531 5.58804 2.18843 5.36809C2.28154 5.14813 2.4179 4.94913 2.58939 4.78288C3.14341 4.20508 3.71052 3.64274 4.29069 3.09585C4.46199 2.91077 4.66971 2.76309 4.90079 2.66209C5.13188 2.56109 5.38135 2.50896 5.63354 2.50896C5.88573 2.50896 6.1352 2.56109 6.36629 2.66209C6.59737 2.76309 6.80507 2.91077 6.97637 3.09585C7.24092 3.38327 7.48863 3.68575 7.71824 4.00178C7.83688 3.89636 7.97501 3.81518 8.12484 3.76282C9.04147 3.55238 9.3161 2.98172 9.19483 2.07223C9.06287 1.00223 9.67633 0.367365 10.6215 0H13.3785C13.8582 0.133301 14.2714 0.43975 14.5382 0.86007C14.805 1.28039 14.9065 1.78472 14.823 2.27552C14.8052 2.47882 14.823 2.68569 14.823 2.88542C14.7838 3.19216 14.9193 3.33482 15.1797 3.45252C16.1855 3.88408 16.1819 3.89478 16.988 3.13152L17.0985 3.02809C17.4385 2.69884 17.8932 2.51474 18.3665 2.51474C18.8397 2.51474 19.2945 2.69884 19.6344 3.02809C20.2622 3.60588 20.8649 4.20508 21.4498 4.81141C21.7795 5.15054 21.9609 5.60672 21.9542 6.07961C21.9475 6.5525 21.7533 7.00337 21.4142 7.33304C21.1538 7.6041 20.8827 7.86447 20.6259 8.13553C20.5475 8.21757 20.4226 8.34596 20.444 8.41373C20.558 8.85454 20.7307 9.27802 20.9576 9.67276C21.0504 9.81186 21.457 9.77975 21.7173 9.76549C22.7873 9.70842 23.6005 10.033 23.9964 11.3419L24 14.4128Z" fill="black" fill-opacity="0.8"/>
<path d="M4.71156 21.8672C4.06243 21.4534 3.94473 21.1538 4.26216 20.3192C4.40133 19.8887 4.64276 19.4984 4.96576 19.1816C5.28876 18.8648 5.68372 18.631 6.11682 18.5002C6.76952 18.3148 7.43649 18.1828 8.08562 17.9938C8.63488 17.8368 9.15561 17.6371 9.77264 17.4338L10.996 21.0005C11.2243 20.2229 11.4276 19.5738 11.5881 18.9247C11.6166 18.807 11.4276 18.6536 11.3776 18.5038C11.3277 18.354 11.21 18.0901 11.2706 17.9474C11.3313 17.8047 11.5774 17.7227 11.7557 17.6799C11.9567 17.6371 12.1645 17.6371 12.3656 17.6799C12.5439 17.7227 12.79 17.8047 12.8542 17.9438C12.8835 18.0356 12.8903 18.133 12.8742 18.228C12.8581 18.3229 12.8194 18.4126 12.7615 18.4895C12.6617 18.5911 12.596 18.7213 12.5736 18.8619C12.5513 19.0026 12.5733 19.1467 12.6366 19.2742C12.8114 19.8021 12.9505 20.3442 13.1431 21.0076C13.5426 19.7236 13.9028 18.5644 14.2345 17.4909C15.3794 17.7976 16.4993 18.1008 17.6193 18.3968C18.1686 18.5204 18.6712 18.7987 19.0674 19.1987C19.4637 19.5988 19.7372 20.104 19.8556 20.6545C19.939 20.8861 19.9295 21.141 19.8291 21.3657C19.7287 21.5905 19.5452 21.7676 19.317 21.86L4.71156 21.8672Z" fill="black" fill-opacity="0.8"/>
<path d="M15.3793 10.7713C15.4186 11.185 15.226 11.6415 15.6468 12.066C15.7931 12.2122 15.7075 12.7472 15.5577 13.0076C15.0799 13.9065 14.5338 14.7674 13.9242 15.5827C13.7121 15.8798 13.433 16.1227 13.1096 16.2919C12.7862 16.4612 12.4275 16.5519 12.0625 16.5567C11.6976 16.5616 11.3366 16.4805 11.0088 16.3199C10.681 16.1594 10.3955 15.9239 10.1756 15.6326C9.53524 14.7983 8.9582 13.9173 8.44934 12.9969C8.37335 12.9028 8.31818 12.7937 8.28742 12.6767C8.25667 12.5597 8.25104 12.4376 8.27092 12.3183C8.2908 12.199 8.33573 12.0853 8.40276 11.9846C8.46978 11.884 8.55739 11.7986 8.65978 11.7343C8.73825 11.6772 8.75252 11.4953 8.74895 11.3776C8.74895 10.9532 8.70971 10.5252 8.72041 10.1043C8.69996 9.46862 8.90283 8.84585 9.29376 8.34415C9.6847 7.84246 10.239 7.49354 10.8604 7.358C11.8631 7.05052 12.946 7.14385 13.8814 7.61836C15.1689 8.26392 15.5184 9.39099 15.3793 10.7713ZM14.6411 12.0695L14.8586 10.9567C14.7841 10.9335 14.7077 10.9168 14.6304 10.9068C13.2418 10.8984 11.8969 10.4207 10.814 9.55148C10.7056 9.49267 10.5858 9.45779 10.4628 9.44917C10.3397 9.44056 10.2163 9.45842 10.1007 9.50155C9.83122 9.60787 9.60368 9.79902 9.45246 10.0461C9.30125 10.2932 9.23459 10.5828 9.26255 10.8711C9.29465 11.2278 9.33031 11.6094 9.36597 11.9732C8.57418 12.1302 8.46362 12.3299 8.88091 13.0432C9.32671 13.8237 9.82108 14.5753 10.3611 15.2938C11.2955 16.4779 12.7329 16.4708 13.6602 15.2938C14.2065 14.5584 14.7034 13.7875 15.1475 12.9862C15.5327 12.3406 15.4364 12.1801 14.6411 12.0695Z" fill="black" fill-opacity="0.8"/>
</svg>
