<svg width="18" height="12" viewBox="0 0 18 12" fill="none" xmlns="http://www.w3.org/2000/svg">
<path d="M17.8545 5.59701C15.9683 2.11007 12.6604 0 9 0C5.33955 0 2.02612 2.11007 0.156716 5.59701L0 5.86007L0.145522 6.12873C2.03172 9.61567 5.33955 11.7257 9 11.7257C12.6604 11.7257 15.9739 9.64366 17.8545 6.12873L18 5.86007L17.8545 5.59701ZM9 10.5784C5.84888 10.5784 2.95522 8.8209 1.27612 5.86007C2.95522 2.89925 5.84888 1.14179 9 1.14179C12.1511 1.14179 15.0112 2.90485 16.7183 5.86007C15.0112 8.8209 12.1455 10.5784 9 10.5784Z" fill="#F14A45"/>
<path d="M9.16261 2.03733C8.40372 2.04287 7.66349 2.27318 7.03542 2.69917C6.40734 3.12516 5.9196 3.72772 5.63378 4.43075C5.34797 5.13378 5.2769 5.90575 5.42956 6.64914C5.58222 7.39254 5.95176 8.07402 6.49151 8.60752C7.03125 9.14101 7.71699 9.50259 8.46212 9.64659C9.20724 9.79058 9.97832 9.71053 10.678 9.41655C11.3776 9.12257 11.9745 8.62784 12.3931 7.99485C12.8118 7.36186 13.0334 6.619 13.0301 5.86009C13.0279 5.35493 12.9261 4.85516 12.7304 4.38943C12.5347 3.92371 12.249 3.50117 11.8897 3.14605C11.5305 2.79093 11.1046 2.51019 10.6367 2.31994C10.1687 2.12968 9.66776 2.03365 9.16261 2.03733ZM9.16261 8.59703C8.62656 8.59151 8.10409 8.42771 7.66082 8.12622C7.21756 7.82473 6.87326 7.39898 6.67118 6.90245C6.46909 6.40592 6.41822 5.86075 6.52496 5.3354C6.63171 4.81006 6.8913 4.32796 7.27114 3.94967C7.65098 3.57138 8.13412 3.31376 8.6599 3.20916C9.18568 3.10456 9.73064 3.15766 10.2263 3.36177C10.722 3.56588 11.1464 3.91191 11.4461 4.3564C11.7457 4.80089 11.9074 5.32403 11.9107 5.86009C11.9122 6.22088 11.8421 6.57837 11.7044 6.91184C11.5667 7.2453 11.3641 7.54811 11.1085 7.8027C10.8528 8.0573 10.5492 8.25861 10.2152 8.39496C9.88115 8.53132 9.52338 8.6 9.16261 8.59703Z" fill="#F14A45"/>
</svg>
