<svg width="18" height="16" viewBox="0 0 18 16" fill="none" xmlns="http://www.w3.org/2000/svg">
<path d="M12.7513 9.0056C12.9118 8.5766 12.9932 8.12205 12.9916 7.66399C12.9916 6.64695 12.5876 5.67156 11.8685 4.9524C11.1493 4.23324 10.1739 3.82922 9.15687 3.82922C8.70446 3.82975 8.25579 3.91116 7.83203 4.0696L8.73203 4.99754C8.86884 4.97565 9.00714 4.96444 9.14569 4.964C9.86481 4.9625 10.5553 5.2456 11.0664 5.75147C11.5775 6.25734 11.8677 6.94489 11.8736 7.66399C11.8732 7.80254 11.862 7.94085 11.8401 8.07766L12.7513 9.0056Z" fill="#F14A45"/>
<path d="M17.8381 7.4012C15.9542 3.9186 12.6505 1.81116 8.99461 1.81116C7.99922 1.81349 7.01052 1.97388 6.06543 2.28631L6.96543 3.1919C7.62832 3.02058 8.30994 2.93233 8.99461 2.92917C12.1418 2.92917 15.0039 4.68444 16.7089 7.64157C16.0834 8.73868 15.2543 9.7063 14.266 10.4925L15.0598 11.2863C16.2036 10.3636 17.1535 9.22366 17.8548 7.93226L18.0002 7.66393L17.8381 7.4012Z" fill="#F14A45"/>
<path d="M1.39192 0.832917L3.88508 3.32608C2.3092 4.34073 1.02125 5.7442 0.145341 7.40122L0 7.66395L0.145341 7.93227C2.02919 11.4149 5.3329 13.5223 8.98879 13.5223C10.4157 13.522 11.8242 13.1991 13.1087 12.5776L15.9037 15.3726L16.8819 14.5341L2.34782 0L1.39192 0.832917ZM6.84221 6.28321L10.5596 10.0006C10.1396 10.2606 9.65605 10.3998 9.16208 10.4031C8.80316 10.4031 8.44779 10.3321 8.1164 10.1943C7.78501 10.0564 7.48415 9.85437 7.23114 9.5998C6.97812 9.34522 6.77795 9.04313 6.64212 8.7109C6.5063 8.37867 6.43752 8.02286 6.43973 7.66395C6.44603 7.1757 6.58517 6.69837 6.84221 6.28321ZM6.03166 5.47265C5.50867 6.2102 5.26354 7.10903 5.33967 8.00997C5.41581 8.91091 5.80828 9.75585 6.44762 10.3952C7.08695 11.0345 7.93189 11.427 8.83284 11.5031C9.73378 11.5793 10.6326 11.3341 11.3702 10.8111L12.2646 11.7056C11.2292 12.1481 10.1148 12.3763 8.98879 12.3764C5.8416 12.3764 2.97949 10.6211 1.27453 7.66395C2.09275 6.21513 3.27114 5.00208 4.69564 4.14222L6.03166 5.47265Z" fill="#F14A45"/>
</svg>
