<svg width="14" height="18" viewBox="0 0 14 18" fill="none" xmlns="http://www.w3.org/2000/svg">
<path fill-rule="evenodd" clip-rule="evenodd" d="M2.625 7V4.375C2.625 3.21468 3.08594 2.10188 3.90641 1.28141C4.72688 0.460936 5.83968 0 7 0C8.16032 0 9.27312 0.460936 10.0936 1.28141C10.9141 2.10188 11.375 3.21468 11.375 4.375C11.375 4.85625 10.9812 5.25 10.5 5.25C10.0188 5.25 9.625 4.85625 9.625 4.375C9.625 3.67881 9.34844 3.01113 8.85616 2.51884C8.36387 2.02656 7.69619 1.75 7 1.75C6.30381 1.75 5.63613 2.02656 5.14384 2.51884C4.65156 3.01113 4.375 3.67881 4.375 4.375V7H12.25C12.7141 7 13.1592 7.18437 13.4874 7.51256C13.8156 7.84075 14 8.28587 14 8.75V15.75C14 16.2141 13.8156 16.6592 13.4874 16.9874C13.1592 17.3156 12.7141 17.5 12.25 17.5H1.75C1.28587 17.5 0.840752 17.3156 0.512563 16.9874C0.184374 16.6592 0 16.2141 0 15.75V8.75C0 8.28587 0.184374 7.84075 0.512563 7.51256C0.840752 7.18437 1.28587 7 1.75 7H2.625ZM1.75 8.75V15.75H12.25V8.75H1.75ZM8.75 10.5H10.5V14H8.75V10.5Z" fill="#F14A45"/>
</svg>
